<svg viewBox="-464 -464 928 928" width="928" height="928" style="max-width: 100%; height: auto; display: block; margin: 0 -14px; background: rgb(163, 245, 207); cursor: pointer;" xmlns="http://www.w3.org/2000/svg" xmlns:xlink="http://www.w3.org/1999/xlink"><g><circle fill="rgb(116, 215, 202)" transform="translate(-155.6833914324529,38.692428194582185)" r="300.9554717514433"/><circle fill="rgb(116, 215, 202)" transform="translate(294.26409404331736,38.692428194582185)" r="146.36700538373933"/><circle fill="rgb(116, 215, 202)" transform="translate(187.1184523163199,281.7849569961749)" r="116.66597335726512"/><circle fill="rgb(116, 215, 202)" transform="translate(183.76827705168895,-192.1300679046848)" r="106.91490349000627"/><circle fill="rgb(116, 215, 202)" transform="translate(18.644760659478717,-335.15068977472157)" r="108.91070946818061"/><circle fill="rgb(116, 215, 202)" transform="translate(22.816566331123962,357.1059046420958)" r="61.45291140111733"/><circle fill="rgb(116, 215, 202)" transform="translate(357.9071387905172,-167.07431825442612)" r="66.3922732812589"/><circle fill="rgb(116, 215, 202)" transform="translate(-92.57171416156346,393.67179363484644)" r="56.965541514528525"/><circle fill="rgb(116, 215, 202)" transform="translate(-146.41050172880833,-319.06902738523684)" r="54.30112823961656"/><circle fill="rgb(116, 215, 202)" transform="translate(303.5405328930614,206.68196522716036)" r="19.25345239631789"/><circle fill="rgb(81, 183, 196)" transform="translate(-281.7059763287395,43.75353171815157)" r="172.2062917671219"/><circle fill="rgb(81, 183, 196)" transform="translate(17.84930378770832,43.75353171815157)" r="124.72398000873841"/><circle fill="rgb(81, 183, 196)" transform="translate(-96.14836719975169,210.49627652472074)" r="74.63767441877324"/><circle fill="rgb(81, 183, 196)" transform="translate(-97.20561175028449,-114.07864716344066)" r="67.96775512128796"/><circle fill="rgb(81, 183, 196)" transform="translate(-212.62824752950408,-186.75360288601516)" r="65.80384221253466"/><circle fill="white" pointer-events="none" transform="translate(-203.5937917910786,236.70714044988526)" r="33.33355882828997"/><circle fill="rgb(81, 183, 196)" transform="translate(5.89326774830556,-115.66608667912338)" r="32.51833641626923"/><circle fill="white" pointer-events="none" transform="translate(260.85399583815973,47.83508062227832)" r="38.46641812716275"/><circle fill="white" pointer-events="none" transform="translate(337.7827121539685,47.83508062227832)" r="35.83728984805845"/><circle fill="white" pointer-events="none" transform="translate(301.8564253771155,111.32505692139738)" r="34.487514504981895"/><circle fill="white" pointer-events="none" transform="translate(301.6703089189097,-9.197247048686732)" r="29.041717002895094"/><circle fill="rgb(81, 183, 196)" transform="translate(234.08047751511398,-26.766850284701203)" r="38.169341749850325"/><circle fill="white" pointer-events="none" transform="translate(237.57238495461579,112.0090073034364)" r="27.175155920790314"/><circle fill="rgb(81, 183, 196)" transform="translate(370.3574493772375,-21.45869357759261)" r="38.1062374381226"/><circle fill="white" pointer-events="none" transform="translate(364.6903546744574,106.324943560866)" r="25.92003861722958"/><circle fill="rgb(81, 183, 196)" transform="translate(186.03764701624524,32.276564390476544)" r="35.325544673336175"/><circle fill="white" pointer-events="none" transform="translate(187.4352897038917,93.76451363922307)" r="23.55327863824862"/><circle fill="white" pointer-events="none" transform="translate(397.1286150268617,65.63221322818559)" r="23.49473625290171"/><circle fill="white" pointer-events="none" transform="translate(415.2962741833224,21.604099878086455)" r="21.50943348460175"/><circle fill="white" pointer-events="none" transform="translate(286.4193910168544,-59.59473244472178)" r="20.987780931847688"/><circle fill="white" pointer-events="none" transform="translate(329.01306857637,-65.01734558716429)" r="19.324678064805095"/><circle fill="white" pointer-events="none" transform="translate(264.8350959830164,144.34497984436186)" r="12.494877206689889"/><circle fill="white" pointer-events="none" transform="translate(341.35335473322795,136.9914862324226)" r="9.991330734998673"/><circle fill="white" pointer-events="none" transform="translate(285.8507280151627,153.1415488191054)" r="7.662485168650966"/><circle fill="white" pointer-events="none" transform="translate(326.0582917798553,145.87700627869444)" r="5.0723979409543585"/><circle fill="white" pointer-events="none" transform="translate(396.49310847176235,96.48932317269588)" r="4.743908831035417"/><circle fill="rgb(81, 183, 196)" transform="translate(139.62827669177668,290.02368791268253)" r="56.47824245079121"/><circle fill="white" pointer-events="none" transform="translate(235.36324863481715,290.02368791268253)" r="36.631721151661644"/><circle fill="white" pointer-events="none" transform="translate(204.698884951331,356.33766971664244)" r="33.803843889083005"/><circle fill="white" pointer-events="none" transform="translate(202.84512413400134,234.76294992708583)" r="24.86173574018856"/><circle fill="white" pointer-events="none" transform="translate(160.25446634158342,213.56720378460565)" r="20.086607553592856"/><circle fill="white" pointer-events="none" transform="translate(149.74355534850756,368.2864245520604)" r="19.810466701766376"/><circle fill="white" pointer-events="none" transform="translate(249.68812981818812,233.15985077842774)" r="19.38368485271226"/><circle fill="white" pointer-events="none" transform="translate(258.93461846735755,343.6061183062504)" r="19.28117551522387"/><circle fill="white" pointer-events="none" transform="translate(118.92346867793752,215.080867032511)" r="18.647089891909708"/><circle fill="white" pointer-events="none" transform="translate(121.48590587533111,355.3116527135989)" r="8.658567120237985"/><circle fill="white" pointer-events="none" transform="translate(188.97553940074553,201.70531405479127)" r="8.362560935335186"/><circle fill="white" pointer-events="none" transform="translate(172.9919547773146,383.760933547938)" r="5.492083115581334"/><circle fill="rgb(81, 183, 196)" transform="translate(150.53788808431122,-194.15204645876307)" r="48.16228336440849"/><circle fill="white" pointer-events="none" transform="translate(231.87852966435898,-194.15204645876307)" r="30.553349875051815"/><circle fill="white" pointer-events="none" transform="translate(204.31562708379906,-150.3620625037723)" r="18.564045028158553"/><circle fill="white" pointer-events="none" transform="translate(204.3050373011308,-237.87754266273762)" r="18.515127828433922"/><circle fill="white" pointer-events="none" transform="translate(172.29281681734503,-258.0144426534442)" r="16.67886701110255"/><circle fill="white" pointer-events="none" transform="translate(172.2300773533827,-130.2917230685264)" r="16.656699715966216"/><circle fill="white" pointer-events="none" transform="translate(241.3142422848376,-242.58743857469412)" r="16.167562406842215"/><circle fill="white" pointer-events="none" transform="translate(241.11273614311196,-145.9831319180618)" r="15.867690527573652"/><circle fill="white" pointer-events="none" transform="translate(137.29677650967935,-259.3245168945052)" r="15.716677638416366"/><circle fill="white" pointer-events="none" transform="translate(137.38102917373757,-129.09387347330843)" r="15.587920600488033"/><circle fill="white" pointer-events="none" transform="translate(202.50926665169843,-273.72593580601654)" r="14.753206990685074"/><circle fill="white" pointer-events="none" transform="translate(201.88598960331953,-115.31631417428689)" r="13.940814468468748"/><circle fill="white" pointer-events="none" transform="translate(231.99911906576116,-115.26657987583881)" r="13.54734772348991"/><circle fill="white" pointer-events="none" transform="translate(231.50293701923644,-271.46233719935407)" r="11.70368281918406"/><circle fill="white" pointer-events="none" transform="translate(264.6241534168972,-164.16065864947157)" r="11.226137251262545"/><circle fill="white" pointer-events="none" transform="translate(263.7588820085353,-223.89075367462738)" r="10.419205620654626"/><circle fill="white" pointer-events="none" transform="translate(113.83544846613391,-145.25971903837709)" r="10.348039769595452"/><circle fill="white" pointer-events="none" transform="translate(113.90822564303083,-242.9356245304351)" r="10.21737746087243"/><circle fill="white" pointer-events="none" transform="translate(154.69716203803918,-108.06130428997407)" r="9.0307386502362"/><circle fill="white" pointer-events="none" transform="translate(154.83296468637477,-279.89560354848277)" r="8.689545992438463"/><circle fill="white" pointer-events="none" transform="translate(179.7038448993156,-103.43017928501125)" r="8.60018097135007"/><circle fill="white" pointer-events="none" transform="translate(179.29739340703324,-284.7211600621042)" r="8.306138193160484"/><circle fill="white" pointer-events="none" transform="translate(101.18470366973871,-162.07837808716496)" r="8.072346542873417"/><circle fill="white" pointer-events="none" transform="translate(101.44230563857694,-226.33597159699102)" r="7.916892583595797"/><circle fill="white" pointer-events="none" transform="translate(271.441747530874,-204.58226434235573)" r="7.7366470153581215"/><circle fill="white" pointer-events="none" transform="translate(271.40494414066467,-184.43320640277952)" r="7.525367576804969"/><circle fill="white" pointer-events="none" transform="translate(94.34236987477503,-209.7222091321942)" r="7.525367576804969"/><circle fill="white" pointer-events="none" transform="translate(94.52987655791343,-178.78894064014546)" r="7.28957439102495"/><circle fill="white" pointer-events="none" transform="translate(86.74126789131411,-194.07724392375647)" r="7.243349610400599"/><circle fill="rgb(81, 183, 196)" transform="translate(-25.67936965725988,-335.15068977472157)" r="61.9615708108545"/><circle fill="rgb(81, 183, 196)" transform="translate(81.91883564062697,-335.15068977472157)" r="43.011626146444826"/><circle fill="rgb(81, 183, 196)" transform="translate(42.12744721222213,-277.48606787465286)" r="24.42450461260028"/><circle fill="white" pointer-events="none" transform="translate(7.255761899149717,358.1802689000992)" r="19.795201131596965"/><circle fill="white" pointer-events="none" transform="translate(47.70580592950545,358.1802689000992)" r="18.02983455817125"/><circle fill="white" pointer-events="none" transform="translate(29.159744905348585,390.87379689985966)" r="16.932696959322747"/><circle fill="white" pointer-events="none" transform="translate(29.115294179601047,326.6892031941381)" r="15.914192451117415"/><circle fill="white" pointer-events="none" transform="translate(-3.754048315552154,322.88835928937755)" r="14.54916711080782"/><circle fill="white" pointer-events="none" transform="translate(-3.1741992250793483,391.81001723532876)" r="12.789789990238203"/><circle fill="white" pointer-events="none" transform="translate(59.52373800956092,327.8552483518545)" r="11.891591466625469"/><circle fill="white" pointer-events="none" transform="translate(59.60017832612515,387.5805651504091)" r="11.06035084675459"/><circle fill="white" pointer-events="none" transform="translate(-22.195077544544684,373.68180328183)" r="10.861159371753509"/><circle fill="white" pointer-events="none" transform="translate(-20.843019068348436,343.242353213013)" r="9.402468242519735"/><circle fill="rgb(81, 183, 196)" transform="translate(340.81710889682194,-168.90039800746766)" r="46.5799530789559"/><circle fill="white" pointer-events="none" transform="translate(404.9810250140221,-168.90039800746766)" r="14.958954697656692"/><circle fill="white" pointer-events="none" transform="translate(396.7184339493685,-137.44478959564756)" r="14.938732293776756"/><circle fill="white" pointer-events="none" transform="translate(395.2996883074447,-196.9187665530778)" r="12.059877070347667"/><circle fill="white" pointer-events="none" transform="translate(378.2103515420626,-215.91952644851094)" r="10.870433168267397"/><circle fill="white" pointer-events="none" transform="translate(375.60589062976595,-124.49962282739652)" r="7.201493628204765"/><circle fill="white" pointer-events="none" transform="translate(359.17412245384793,-221.2546187217304)" r="6.27426328061413"/><circle fill="white" pointer-events="none" transform="translate(-119.27993703522331,395.72310131530463)" r="26.556278518296732"/><circle fill="white" pointer-events="none" transform="translate(-64.20194776626685,395.72310131530463)" r="25.896702410072198"/><circle fill="white" pointer-events="none" transform="translate(-91.23055241132242,428.24896834541)" r="13.768684082195868"/><circle fill="white" pointer-events="none" transform="translate(-91.24942371570937,365.2910763223562)" r="12.192833338733031"/><circle fill="white" pointer-events="none" transform="translate(-114.99392331039887,356.14653411923)" r="10.626684512121212"/><circle fill="white" pointer-events="none" transform="translate(-68.10064726595071,357.9282962659848)" r="9.473646156532592"/><circle fill="white" pointer-events="none" transform="translate(-115.64206439389629,433.2541426085832)" r="8.525651201800299"/><circle fill="white" pointer-events="none" transform="translate(-70.20776376598012,428.3254848097643)" r="4.629235470258749"/><circle fill="white" pointer-events="none" transform="translate(-172.08248772814076,-319.06902738523684)" r="26.004133899696576"/><circle fill="white" pointer-events="none" transform="translate(-119.093863658818,-319.06902738523684)" r="24.359481829038682"/><circle fill="white" pointer-events="none" transform="translate(-144.24089597643982,-284.70134689154446)" r="15.600844124001656"/><circle fill="white" pointer-events="none" transform="translate(-144.39031713788918,-347.11810734022123)" r="10.78668197183536"/><circle fill="white" pointer-events="none" transform="translate(303.5405328930614,206.68196522716036)" r="16.628444055730355"/><circle fill="rgb(66, 150, 183)" transform="translate(-340.71262953232326,52.34207919816901)" r="109.95286511693534"/><circle fill="rgb(66, 150, 183)" transform="translate(-181.69634945351893,52.34207919816901)" r="46.43840662128146"/><circle fill="rgb(66, 150, 183)" transform="translate(-210.27096431724888,143.7405798064144)" r="46.69771769666799"/><circle fill="rgb(66, 150, 183)" transform="translate(-211.84524839957558,-34.38683501969404)" r="42.75630334018738"/><circle fill="rgb(66, 150, 183)" transform="translate(-278.7608723017377,-86.41410134021514)" r="39.380337447837775"/><circle fill="white" pointer-events="none" transform="translate(-274.66878163191217,165.88563227536176)" r="18.776335804631707"/><circle fill="white" pointer-events="none" transform="translate(-336.77712084225607,-76.95316972981105)" r="16.77725641368835"/><circle fill="white" pointer-events="none" transform="translate(-308.309918208136,173.84104365734467)" r="13.167639646566245"/><circle fill="white" pointer-events="none" transform="translate(-160.87596502217306,-6.054153223864886)" r="12.933426642822736"/><circle fill="white" pointer-events="none" transform="translate(-160.09197362377975,109.08977939519148)" r="11.6576730771621"/><circle fill="white" pointer-events="none" transform="translate(-333.3967741032991,173.99485311798432)" r="9.294679412448998"/><circle fill="white" pointer-events="none" transform="translate(-8.073009872583155,38.271944200891134)" r="37.14979604475783"/><circle fill="white" pointer-events="none" transform="translate(68.16164483675696,38.271944200891134)" r="36.459850323994814"/><circle fill="white" pointer-events="none" transform="translate(30.72773845457726,103.4566192962685)" r="36.08387961350574"/><circle fill="white" pointer-events="none" transform="translate(30.650246497816735,-16.767159160396087)" r="27.521506678056717"/><circle fill="white" pointer-events="none" transform="translate(-25.165170666524883,-25.623404933282412)" r="26.36714600609599"/><circle fill="white" pointer-events="none" transform="translate(86.14212552942398,-24.100841302617706)" r="25.827867802622016"/><circle fill="rgb(66, 150, 183)" transform="translate(-43.53568879141027,104.74442473021166)" r="35.56570439857989"/><circle fill="white" pointer-events="none" transform="translate(90.74614115901134,94.93338740836883)" r="21.911687307170357"/><circle fill="white" pointer-events="none" transform="translate(-53.51058356307379,7.877451933195629)" r="14.891439889250345"/><circle fill="white" pointer-events="none" transform="translate(-120.20953170903708,212.72058317406365)" r="23.804358052091494"/><circle fill="white" pointer-events="none" transform="translate(-70.79855531730344,212.72058317406365)" r="22.981609999054584"/><circle fill="white" pointer-events="none" transform="translate(-94.75894324971402,250.02493728087924)" r="18.72976655130608"/><circle fill="white" pointer-events="none" transform="translate(-94.76883490562311,176.1307314353082)" r="18.1357130317687"/><circle fill="white" pointer-events="none" transform="translate(-132.80664849046283,170.42456900700913)" r="17.702709987484138"/><circle fill="white" pointer-events="none" transform="translate(-131.97829825137072,253.5140121345581)" r="16.027761539893913"/><circle fill="white" pointer-events="none" transform="translate(-60.242198105165805,174.76142354477528)" r="13.79305776755503"/><circle fill="white" pointer-events="none" transform="translate(-60.064454641911816,250.15874501446794)" r="13.3399717459835"/><circle fill="white" pointer-events="none" transform="translate(-38.65880632354594,193.2238071449137)" r="11.984440981858413"/><circle fill="white" pointer-events="none" transform="translate(-41.7189419059419,232.4492459594321)" r="9.533729573448076"/><circle fill="white" pointer-events="none" transform="translate(-147.222010475389,232.6838180047441)" r="7.159392947426281"/><circle fill="white" pointer-events="none" transform="translate(-125.11483806180267,-114.07864716344066)" r="37.43352046918226"/><circle fill="white" pointer-events="none" transform="translate(-58.45958711080845,-114.07864716344066)" r="26.596722141224408"/><circle fill="white" pointer-events="none" transform="translate(-83.29309906655872,-74.37848646432353)" r="17.605676830488783"/><circle fill="white" pointer-events="none" transform="translate(-235.16090613633895,-186.75360288601516)" r="40.64617526511226"/><circle fill="white" pointer-events="none" transform="translate(-170.66956809409803,-186.75360288601516)" r="21.220154436541105"/><circle fill="white" pointer-events="none" transform="translate(-189.98977787119404,-159.75726148498293)" r="9.352321387670408"/><circle fill="white" pointer-events="none" transform="translate(-190.81335728064803,-209.6062225288363)" r="6.618167102115079"/><circle fill="white" pointer-events="none" transform="translate(-200.23528139645484,-222.26419171562887)" r="6.5364582025317235"/><circle fill="white" pointer-events="none" transform="translate(-8.399057585608828,-117.88804072891843)" r="12.46527164020434"/><circle fill="white" pointer-events="none" transform="translate(17.929321437000734,-117.88804072891843)" r="11.238099041817664"/><circle fill="white" pointer-events="none" transform="translate(5.93814473913693,-96.46252507593606)" r="10.689714035826658"/><circle fill="white" pointer-events="none" transform="translate(5.843653226840501,-136.89691124459856)" r="8.662445537955545"/><circle fill="white" pointer-events="none" transform="translate(219.5740648778726,-30.00239818783984)" r="20.681467674976545"/><circle fill="white" pointer-events="none" transform="translate(255.28638944852273,-30.00239818783984)" r="12.405848555086054"/><circle fill="white" pointer-events="none" transform="translate(244.597547163131,-5.43516121652226)" r="11.760941883185067"/><circle fill="white" pointer-events="none" transform="translate(243.97776581552293,-51.30392663658028)" r="9.086358588816777"/><circle fill="white" pointer-events="none" transform="translate(359.94381204155803,-21.45869357759261)" r="25.067591761855635"/><circle fill="white" pointer-events="none" transform="translate(396.7375453093869,-21.45869357759261)" r="9.101133165385667"/><circle fill="white" pointer-events="none" transform="translate(170.1687051510829,24.519939537318233)" r="15.03733885798389"/><circle fill="white" pointer-events="none" transform="translate(202.4125048606879,24.519939537318233)" r="14.581452511033554"/><circle fill="white" pointer-events="none" transform="translate(186.7315354210145,51.21279496490512)" r="13.751596798141533"/><circle fill="white" pointer-events="none" transform="translate(122.04034878947412,286.73835705460607)" r="24.239221487750754"/><circle fill="white" pointer-events="none" transform="translate(161.06707118635867,286.73835705460607)" r="12.16249256854629"/><circle fill="white" pointer-events="none" transform="translate(151.62700124174805,311.515033320176)" r="11.72661999516916"/><circle fill="white" pointer-events="none" transform="translate(151.62256671068107,261.9787078603891)" r="11.712289524222111"/><circle fill="white" pointer-events="none" transform="translate(129.22702882827465,249.01067072464795)" r="11.541846328850722"/><circle fill="white" pointer-events="none" transform="translate(129.6904063270883,323.4210824369707)" r="10.607702625256755"/><circle fill="white" pointer-events="none" transform="translate(176.0241363631802,266.39690811389784)" r="10.461030606800465"/><circle fill="white" pointer-events="none" transform="translate(175.12737211032376,306.707935918699)" r="9.635360145248733"/><circle fill="white" pointer-events="none" transform="translate(107.10222890284284,320.0143189745617)" r="9.610927024589786"/><circle fill="white" pointer-events="none" transform="translate(142.12960035001637,-193.16811556331808)" r="7.201493628204765"/><circle fill="white" pointer-events="none" transform="translate(159.044771837129,-193.16811556331808)" r="7.088669518320256"/><circle fill="white" pointer-events="none" transform="translate(150.69557201613836,-179.2931061942546)" r="6.47968567812269"/><circle fill="white" pointer-events="none" transform="translate(150.6953640623834,-207.00659985102018)" r="6.448508180423635"/><circle fill="white" pointer-events="none" transform="translate(135.27967610499942,-207.83886944486292)" r="6.364621575154054"/><circle fill="white" pointer-events="none" transform="translate(135.24593070005253,-178.51316507669068)" r="6.364621575154054"/><circle fill="white" pointer-events="none" transform="translate(166.1064210066946,-207.59501142835703)" r="6.348769442008237"/><circle fill="white" pointer-events="none" transform="translate(166.13457349081543,-178.7609325752019)" r="6.343476594533785"/><circle fill="white" pointer-events="none" transform="translate(126.14481210870643,-195.53710139226055)" r="6.332877628743406"/><circle fill="white" pointer-events="none" transform="translate(120.21887948996924,-181.45284739096516)" r="6.322260894322492"/><circle fill="white" pointer-events="none" transform="translate(174.95550136929157,-195.12504729396377)" r="6.316945835884602"/><circle fill="white" pointer-events="none" transform="translate(181.21624374104053,-181.21552457189372)" r="6.3116263016056475"/><circle fill="white" pointer-events="none" transform="translate(143.61850385720217,-220.65551926035366)" r="6.300973760170797"/><circle fill="white" pointer-events="none" transform="translate(143.48723229613685,-166.5165859489111)" r="5.564990064412435"/><circle fill="white" pointer-events="none" transform="translate(158.07221601007674,-219.70499723077904)" r="5.558951006676482"/><circle fill="white" pointer-events="none" transform="translate(158.13204046676512,-167.1996597865776)" r="5.092224979175303"/><circle fill="white" pointer-events="none" transform="translate(151.7187553311771,-156.28960230980434)" r="4.938183717097354"/><circle fill="white" pointer-events="none" transform="translate(121.4313980505526,-208.54387813857483)" r="4.876582340367972"/><circle fill="white" pointer-events="none" transform="translate(179.82032607316202,-207.91708883786427)" r="4.743908831035417"/><circle fill="white" pointer-events="none" transform="translate(170.47765090556604,-165.7919644823597)" r="4.708373433074067"/><circle fill="white" pointer-events="none" transform="translate(130.6679127328392,-165.6560988340165)" r="4.658168473619248"/><circle fill="white" pointer-events="none" transform="translate(170.78475248496883,-220.27457644573823)" r="4.541330594720693"/><circle fill="white" pointer-events="none" transform="translate(130.15439919138086,-220.361585959039)" r="4.541330594720693"/><circle fill="white" pointer-events="none" transform="translate(119.15247557695044,-168.0662172602541)" r="4.481769582598949"/><circle fill="white" pointer-events="none" transform="translate(182.0896155936301,-167.84816181101237)" r="4.4592291065127245"/><circle fill="white" pointer-events="none" transform="translate(152.21529090547526,-230.87563232790595)" r="4.428996696188851"/><circle fill="white" pointer-events="none" transform="translate(118.60023404965146,-220.09446970090966)" r="4.390913472496766"/><circle fill="white" pointer-events="none" transform="translate(182.27700179725443,-219.3860516406297)" r="4.360207407157954"/><circle fill="white" pointer-events="none" transform="translate(113.12925021759496,-192.71455646905272)" r="4.360207407157954"/><circle fill="white" pointer-events="none" transform="translate(187.99728971928548,-192.62638458933466)" r="4.337035193112481"/><circle fill="white" pointer-events="none" transform="translate(190.66856722548445,-203.5811797537518)" r="4.313738506117092"/><circle fill="white" pointer-events="none" transform="translate(110.78405583639413,-203.66270544680808)" r="4.211297223923068"/><circle fill="white" pointer-events="none" transform="translate(-35.94915612978644,-335.746575141824)" r="22.949433096621224"/><circle fill="white" pointer-events="none" transform="translate(9.557455679790904,-335.746575141824)" r="19.932170372368574"/><circle fill="white" pointer-events="none" transform="translate(-10.299223372689537,-298.53445971109096)" r="19.621361302357577"/><circle fill="white" pointer-events="none" transform="translate(-10.57858317509192,-367.93193281293446)" r="15.408033115541063"/><circle fill="white" pointer-events="none" transform="translate(-42.79163679539612,-375.89066056868654)" r="15.148612677364673"/><circle fill="white" pointer-events="none" transform="translate(64.53617637151227,-343.1837221188142)" r="21.23755903245077"/><circle fill="white" pointer-events="none" transform="translate(104.66365831336962,-343.1837221188142)" r="16.26491456881899"/><circle fill="white" pointer-events="none" transform="translate(89.23194673027136,-311.8891541037498)" r="16.0025936182591"/><circle fill="white" pointer-events="none" transform="translate(88.12438196441768,-363.18640013768567)" r="7.064937715795136"/><circle fill="white" pointer-events="none" transform="translate(42.12744721222213,-277.48606787465286)" r="21.799496272012746"/><circle fill="white" pointer-events="none" transform="translate(322.5204103830178,-168.90039800746766)" r="25.65824622456428"/><circle fill="white" pointer-events="none" transform="translate(367.78785929168004,-168.90039800746766)" r="16.984194343510325"/><circle fill="white" pointer-events="none" transform="translate(352.08271689933537,-141.22470605735938)" r="12.212101853603134"/><circle fill="white" pointer-events="none" transform="translate(351.54297132840765,-192.92883943018413)" r="9.395320793183854"/><circle fill="white" pointer-events="none" transform="translate(334.829812837587,-201.92363741174685)" r="6.959556468318418"/><circle fill="white" pointer-events="none" transform="translate(-366.8693872514334,44.651423342330354)" r="29.40378266525974"/><circle fill="white" pointer-events="none" transform="translate(-306.03928629024443,44.651423342330354)" r="28.80130995534166"/><circle fill="white" pointer-events="none" transform="translate(-335.8588607489133,96.51196498510159)" r="28.396108939829954"/><circle fill="white" pointer-events="none" transform="translate(-335.8923185203191,-3.252162835826311)" r="25.01796486948941"/><circle fill="white" pointer-events="none" transform="translate(-388.1600603262172,-8.09041789373691)" r="24.848221722915564"/><circle fill="white" pointer-events="none" transform="translate(-283.62037351675656,-6.861245102970883)" r="24.753417021183132"/><circle fill="white" pointer-events="none" transform="translate(-390.63320330521464,95.13744558904021)" r="23.770468807641596"/><circle fill="white" pointer-events="none" transform="translate(-281.9152289147228,93.44971477085356)" r="23.009362930638876"/><circle fill="white" pointer-events="none" transform="translate(-418.1815645516036,30.291150021014683)" r="21.254949376627717"/><circle fill="white" pointer-events="none" transform="translate(-258.4580009834887,30.993629165767057)" r="18.076348836380564"/><circle fill="white" pointer-events="none" transform="translate(-427.9999050586511,71.06143487538564)" r="18.055897316620435"/><circle fill="white" pointer-events="none" transform="translate(-250.32579154061062,66.60133351254136)" r="15.82317484289668"/><circle fill="white" pointer-events="none" transform="translate(-359.12074041254425,-38.53803135700286)" r="14.602169716618945"/><circle fill="white" pointer-events="none" transform="translate(-311.7262262126189,-36.596207397803305)" r="13.537426559417737"/><circle fill="white" pointer-events="none" transform="translate(-366.91142223191326,119.55109902139235)" r="7.644930769488858"/><circle fill="white" pointer-events="none" transform="translate(-199.09444358802463,47.918135544897545)" r="25.861658616793882"/><circle fill="white" pointer-events="none" transform="translate(-154.42360228784233,47.918135544897545)" r="16.18417434280089"/><circle fill="white" pointer-events="none" transform="translate(-168.45860560801881,78.30951153706506)" r="14.66643609946101"/><circle fill="white" pointer-events="none" transform="translate(-218.54128352641447,142.82181337180938)" r="16.672824308044095"/><circle fill="white" pointer-events="none" transform="translate(-182.7285128863372,142.82181337180938)" r="16.514937991445652"/><circle fill="white" pointer-events="none" transform="translate(-200.4857419818139,171.52699060126267)" r="14.613666584565339"/><circle fill="white" pointer-events="none" transform="translate(-200.50128699251965,118.37112769711449)" r="11.087649162681945"/><circle fill="white" pointer-events="none" transform="translate(-224.36498531824105,113.44048752481841)" r="10.655093937716998"/><circle fill="white" pointer-events="none" transform="translate(-230.39515436107303,-40.515425040551854)" r="20.59520975141985"/><circle fill="white" pointer-events="none" transform="translate(-189.86362193607735,-40.515425040551854)" r="17.311314332988307"/><circle fill="white" pointer-events="none" transform="translate(-207.14872843405877,-9.912660627274986)" r="15.210570452006175"/><circle fill="white" pointer-events="none" transform="translate(-295.30144582856946,-93.592147504301)" r="18.72438572288248"/><circle fill="white" pointer-events="none" transform="translate(-258.5986146440468,-93.592147504301)" r="15.353437121052707"/><circle fill="white" pointer-events="none" transform="translate(-273.80478541297487,-64.80118839319941)" r="14.581452511033554"/><circle fill="white" pointer-events="none" transform="translate(-57.13433316060405,104.74442473021166)" r="19.342051688798566"/><circle fill="white" pointer-events="none" transform="translate(-22.881132932317936,104.74442473021166)" r="12.286140198900021"/><circle fill="white" pointer-events="none" transform="translate(-34.798844281460724,122.94919141730541)" r="6.847651379924453"/><circle fill="white" pointer-events="none" transform="translate(-35.20629009285914,89.2727712926504)" r="4.8696896410355714"/></g><g pointer-events="none" text-anchor="middle" style="font: 10px sans-serif;"><text transform="translate(0,0)" style="fill-opacity: 0; display: none;">flare</text><text transform="translate(-155.6833914324529,38.692428194582185)" style="fill-opacity: 1; display: inline;">vis</text><text transform="translate(294.26409404331736,38.692428194582185)" style="fill-opacity: 1; display: inline;">util</text><text transform="translate(187.1184523163199,281.7849569961749)" style="fill-opacity: 1; display: inline;">animate</text><text transform="translate(183.76827705168895,-192.1300679046848)" style="fill-opacity: 1; display: inline;">query</text><text transform="translate(18.644760659478717,-335.15068977472157)" style="fill-opacity: 1; display: inline;">analytics</text><text transform="translate(22.816566331123962,357.1059046420958)" style="fill-opacity: 1; display: inline;">scale</text><text transform="translate(357.9071387905172,-167.07431825442612)" style="fill-opacity: 1; display: inline;">data</text><text transform="translate(-92.57171416156346,393.67179363484644)" style="fill-opacity: 1; display: inline;">physics</text><text transform="translate(-146.41050172880833,-319.06902738523684)" style="fill-opacity: 1; display: inline;">display</text><text transform="translate(303.5405328930614,206.68196522716036)" style="fill-opacity: 1; display: inline;">flex</text><text transform="translate(-281.7059763287395,43.75353171815157)" style="fill-opacity: 0; display: none;">operator</text><text transform="translate(17.84930378770832,43.75353171815157)" style="fill-opacity: 0; display: none;">data</text><text transform="translate(-96.14836719975169,210.49627652472074)" style="fill-opacity: 0; display: none;">controls</text><text transform="translate(-97.20561175028449,-114.07864716344066)" style="fill-opacity: 0; display: none;">legend</text><text transform="translate(-212.62824752950408,-186.75360288601516)" style="fill-opacity: 0; display: none;">axis</text><text transform="translate(-203.5937917910786,236.70714044988526)" style="fill-opacity: 0; display: none;">Visualization</text><text transform="translate(5.89326774830556,-115.66608667912338)" style="fill-opacity: 0; display: none;">events</text><text transform="translate(260.85399583815973,47.83508062227832)" style="fill-opacity: 0; display: none;">Strings</text><text transform="translate(337.7827121539685,47.83508062227832)" style="fill-opacity: 0; display: none;">Shapes</text><text transform="translate(301.8564253771155,111.32505692139738)" style="fill-opacity: 0; display: none;">Maths</text><text transform="translate(301.6703089189097,-9.197247048686732)" style="fill-opacity: 0; display: none;">Displays</text><text transform="translate(234.08047751511398,-26.766850284701203)" style="fill-opacity: 0; display: none;">palette</text><text transform="translate(237.57238495461579,112.0090073034364)" style="fill-opacity: 0; display: none;">Geometry</text><text transform="translate(370.3574493772375,-21.45869357759261)" style="fill-opacity: 0; display: none;">heap</text><text transform="translate(364.6903546744574,106.324943560866)" style="fill-opacity: 0; display: none;">Colors</text><text transform="translate(186.03764701624524,32.276564390476544)" style="fill-opacity: 0; display: none;">math</text><text transform="translate(187.4352897038917,93.76451363922307)" style="fill-opacity: 0; display: none;">Arrays</text><text transform="translate(397.1286150268617,65.63221322818559)" style="fill-opacity: 0; display: none;">Dates</text><text transform="translate(415.2962741833224,21.604099878086455)" style="fill-opacity: 0; display: none;">Sort</text><text transform="translate(286.4193910168544,-59.59473244472178)" style="fill-opacity: 0; display: none;">Stats</text><text transform="translate(329.01306857637,-65.01734558716429)" style="fill-opacity: 0; display: none;">Property</text><text transform="translate(264.8350959830164,144.34497984436186)" style="fill-opacity: 0; display: none;">Filter</text><text transform="translate(341.35335473322795,136.9914862324226)" style="fill-opacity: 0; display: none;">Orientation</text><text transform="translate(285.8507280151627,153.1415488191054)" style="fill-opacity: 0; display: none;">IValueProxy</text><text transform="translate(326.0582917798553,145.87700627869444)" style="fill-opacity: 0; display: none;">IPredicate</text><text transform="translate(396.49310847176235,96.48932317269588)" style="fill-opacity: 0; display: none;">IEvaluable</text><text transform="translate(139.62827669177668,290.02368791268253)" style="fill-opacity: 0; display: none;">interpolate</text><text transform="translate(235.36324863481715,290.02368791268253)" style="fill-opacity: 0; display: none;">Transitioner</text><text transform="translate(204.698884951331,356.33766971664244)" style="fill-opacity: 0; display: none;">Easing</text><text transform="translate(202.84512413400134,234.76294992708583)" style="fill-opacity: 0; display: none;">Transition</text><text transform="translate(160.25446634158342,213.56720378460565)" style="fill-opacity: 0; display: none;">Tween</text><text transform="translate(149.74355534850756,368.2864245520604)" style="fill-opacity: 0; display: none;">FunctionSequence</text><text transform="translate(249.68812981818812,233.15985077842774)" style="fill-opacity: 0; display: none;">Scheduler</text><text transform="translate(258.93461846735755,343.6061183062504)" style="fill-opacity: 0; display: none;">Sequence</text><text transform="translate(118.92346867793752,215.080867032511)" style="fill-opacity: 0; display: none;">Parallel</text><text transform="translate(121.48590587533111,355.3116527135989)" style="fill-opacity: 0; display: none;">TransitionEvent</text><text transform="translate(188.97553940074553,201.70531405479127)" style="fill-opacity: 0; display: none;">ISchedulable</text><text transform="translate(172.9919547773146,383.760933547938)" style="fill-opacity: 0; display: none;">Pause</text><text transform="translate(150.53788808431122,-194.15204645876307)" style="fill-opacity: 0; display: none;">methods</text><text transform="translate(231.87852966435898,-194.15204645876307)" style="fill-opacity: 0; display: none;">Query</text><text transform="translate(204.31562708379906,-150.3620625037723)" style="fill-opacity: 0; display: none;">Expression</text><text transform="translate(204.3050373011308,-237.87754266273762)" style="fill-opacity: 0; display: none;">Comparison</text><text transform="translate(172.29281681734503,-258.0144426534442)" style="fill-opacity: 0; display: none;">DateUtil</text><text transform="translate(172.2300773533827,-130.2917230685264)" style="fill-opacity: 0; display: none;">StringUtil</text><text transform="translate(241.3142422848376,-242.58743857469412)" style="fill-opacity: 0; display: none;">Arithmetic</text><text transform="translate(241.11273614311196,-145.9831319180618)" style="fill-opacity: 0; display: none;">Match</text><text transform="translate(137.29677650967935,-259.3245168945052)" style="fill-opacity: 0; display: none;">CompositeExpression</text><text transform="translate(137.38102917373757,-129.09387347330843)" style="fill-opacity: 0; display: none;">ExpressionIterator</text><text transform="translate(202.50926665169843,-273.72593580601654)" style="fill-opacity: 0; display: none;">Fn</text><text transform="translate(201.88598960331953,-115.31631417428689)" style="fill-opacity: 0; display: none;">BinaryExpression</text><text transform="translate(231.99911906576116,-115.26657987583881)" style="fill-opacity: 0; display: none;">If</text><text transform="translate(231.50293701923644,-271.46233719935407)" style="fill-opacity: 0; display: none;">IsA</text><text transform="translate(264.6241534168972,-164.16065864947157)" style="fill-opacity: 0; display: none;">Variance</text><text transform="translate(263.7588820085353,-223.89075367462738)" style="fill-opacity: 0; display: none;">AggregateExpression</text><text transform="translate(113.83544846613391,-145.25971903837709)" style="fill-opacity: 0; display: none;">Range</text><text transform="translate(113.90822564303083,-242.9356245304351)" style="fill-opacity: 0; display: none;">Not</text><text transform="translate(154.69716203803918,-108.06130428997407)" style="fill-opacity: 0; display: none;">Literal</text><text transform="translate(154.83296468637477,-279.89560354848277)" style="fill-opacity: 0; display: none;">Variable</text><text transform="translate(179.7038448993156,-103.43017928501125)" style="fill-opacity: 0; display: none;">Xor</text><text transform="translate(179.29739340703324,-284.7211600621042)" style="fill-opacity: 0; display: none;">And</text><text transform="translate(101.18470366973871,-162.07837808716496)" style="fill-opacity: 0; display: none;">Or</text><text transform="translate(101.44230563857694,-226.33597159699102)" style="fill-opacity: 0; display: none;">Distinct</text><text transform="translate(271.441747530874,-204.58226434235573)" style="fill-opacity: 0; display: none;">Average</text><text transform="translate(271.40494414066467,-184.43320640277952)" style="fill-opacity: 0; display: none;">Maximum</text><text transform="translate(94.34236987477503,-209.7222091321942)" style="fill-opacity: 0; display: none;">Minimum</text><text transform="translate(94.52987655791343,-178.78894064014546)" style="fill-opacity: 0; display: none;">Sum</text><text transform="translate(86.74126789131411,-194.07724392375647)" style="fill-opacity: 0; display: none;">Count</text><text transform="translate(-25.67936965725988,-335.15068977472157)" style="fill-opacity: 0; display: none;">graph</text><text transform="translate(81.91883564062697,-335.15068977472157)" style="fill-opacity: 0; display: none;">cluster</text><text transform="translate(42.12744721222213,-277.48606787465286)" style="fill-opacity: 0; display: none;">optimization</text><text transform="translate(7.255761899149717,358.1802689000992)" style="fill-opacity: 0; display: none;">TimeScale</text><text transform="translate(47.70580592950545,358.1802689000992)" style="fill-opacity: 0; display: none;">QuantitativeScale</text><text transform="translate(29.159744905348585,390.87379689985966)" style="fill-opacity: 0; display: none;">Scale</text><text transform="translate(29.115294179601047,326.6892031941381)" style="fill-opacity: 0; display: none;">OrdinalScale</text><text transform="translate(-3.754048315552154,322.88835928937755)" style="fill-opacity: 0; display: none;">LogScale</text><text transform="translate(-3.1741992250793483,391.81001723532876)" style="fill-opacity: 0; display: none;">QuantileScale</text><text transform="translate(59.52373800956092,327.8552483518545)" style="fill-opacity: 0; display: none;">IScaleMap</text><text transform="translate(59.60017832612515,387.5805651504091)" style="fill-opacity: 0; display: none;">ScaleType</text><text transform="translate(-22.195077544544684,373.68180328183)" style="fill-opacity: 0; display: none;">RootScale</text><text transform="translate(-20.843019068348436,343.242353213013)" style="fill-opacity: 0; display: none;">LinearScale</text><text transform="translate(340.81710889682194,-168.90039800746766)" style="fill-opacity: 0; display: none;">converters</text><text transform="translate(404.9810250140221,-168.90039800746766)" style="fill-opacity: 0; display: none;">DataSource</text><text transform="translate(396.7184339493685,-137.44478959564756)" style="fill-opacity: 0; display: none;">DataUtil</text><text transform="translate(395.2996883074447,-196.9187665530778)" style="fill-opacity: 0; display: none;">DataSchema</text><text transform="translate(378.2103515420626,-215.91952644851094)" style="fill-opacity: 0; display: none;">DataField</text><text transform="translate(375.60589062976595,-124.49962282739652)" style="fill-opacity: 0; display: none;">DataTable</text><text transform="translate(359.17412245384793,-221.2546187217304)" style="fill-opacity: 0; display: none;">DataSet</text><text transform="translate(-119.27993703522331,395.72310131530463)" style="fill-opacity: 0; display: none;">NBodyForce</text><text transform="translate(-64.20194776626685,395.72310131530463)" style="fill-opacity: 0; display: none;">Simulation</text><text transform="translate(-91.23055241132242,428.24896834541)" style="fill-opacity: 0; display: none;">Particle</text><text transform="translate(-91.24942371570937,365.2910763223562)" style="fill-opacity: 0; display: none;">Spring</text><text transform="translate(-114.99392331039887,356.14653411923)" style="fill-opacity: 0; display: none;">SpringForce</text><text transform="translate(-68.10064726595071,357.9282962659848)" style="fill-opacity: 0; display: none;">GravityForce</text><text transform="translate(-115.64206439389629,433.2541426085832)" style="fill-opacity: 0; display: none;">DragForce</text><text transform="translate(-70.20776376598012,428.3254848097643)" style="fill-opacity: 0; display: none;">IForce</text><text transform="translate(-172.08248772814076,-319.06902738523684)" style="fill-opacity: 0; display: none;">TextSprite</text><text transform="translate(-119.093863658818,-319.06902738523684)" style="fill-opacity: 0; display: none;">DirtySprite</text><text transform="translate(-144.24089597643982,-284.70134689154446)" style="fill-opacity: 0; display: none;">RectSprite</text><text transform="translate(-144.39031713788918,-347.11810734022123)" style="fill-opacity: 0; display: none;">LineSprite</text><text transform="translate(303.5405328930614,206.68196522716036)" style="fill-opacity: 0; display: none;">FlareVis</text><text transform="translate(-340.71262953232326,52.34207919816901)" style="fill-opacity: 0; display: none;">layout</text><text transform="translate(-181.69634945351893,52.34207919816901)" style="fill-opacity: 0; display: none;">label</text><text transform="translate(-210.27096431724888,143.7405798064144)" style="fill-opacity: 0; display: none;">encoder</text><text transform="translate(-211.84524839957558,-34.38683501969404)" style="fill-opacity: 0; display: none;">distortion</text><text transform="translate(-278.7608723017377,-86.41410134021514)" style="fill-opacity: 0; display: none;">filter</text><text transform="translate(-274.66878163191217,165.88563227536176)" style="fill-opacity: 0; display: none;">OperatorList</text><text transform="translate(-336.77712084225607,-76.95316972981105)" style="fill-opacity: 0; display: none;">OperatorSequence</text><text transform="translate(-308.309918208136,173.84104365734467)" style="fill-opacity: 0; display: none;">OperatorSwitch</text><text transform="translate(-160.87596502217306,-6.054153223864886)" style="fill-opacity: 0; display: none;">Operator</text><text transform="translate(-160.09197362377975,109.08977939519148)" style="fill-opacity: 0; display: none;">SortOperator</text><text transform="translate(-333.3967741032991,173.99485311798432)" style="fill-opacity: 0; display: none;">IOperator</text><text transform="translate(-8.073009872583155,38.271944200891134)" style="fill-opacity: 0; display: none;">Data</text><text transform="translate(68.16164483675696,38.271944200891134)" style="fill-opacity: 0; display: none;">DataList</text><text transform="translate(30.72773845457726,103.4566192962685)" style="fill-opacity: 0; display: none;">NodeSprite</text><text transform="translate(30.650246497816735,-16.767159160396087)" style="fill-opacity: 0; display: none;">ScaleBinding</text><text transform="translate(-25.165170666524883,-25.623404933282412)" style="fill-opacity: 0; display: none;">DataSprite</text><text transform="translate(86.14212552942398,-24.100841302617706)" style="fill-opacity: 0; display: none;">TreeBuilder</text><text transform="translate(-43.53568879141027,104.74442473021166)" style="fill-opacity: 0; display: none;">render</text><text transform="translate(90.74614115901134,94.93338740836883)" style="fill-opacity: 0; display: none;">Tree</text><text transform="translate(-53.51058356307379,7.877451933195629)" style="fill-opacity: 0; display: none;">EdgeSprite</text><text transform="translate(-120.20953170903708,212.72058317406365)" style="fill-opacity: 0; display: none;">TooltipControl</text><text transform="translate(-70.79855531730344,212.72058317406365)" style="fill-opacity: 0; display: none;">SelectionControl</text><text transform="translate(-94.75894324971402,250.02493728087924)" style="fill-opacity: 0; display: none;">PanZoomControl</text><text transform="translate(-94.76883490562311,176.1307314353082)" style="fill-opacity: 0; display: none;">HoverControl</text><text transform="translate(-132.80664849046283,170.42456900700913)" style="fill-opacity: 0; display: none;">ControlList</text><text transform="translate(-131.97829825137072,253.5140121345581)" style="fill-opacity: 0; display: none;">ClickControl</text><text transform="translate(-60.242198105165805,174.76142354477528)" style="fill-opacity: 0; display: none;">ExpandControl</text><text transform="translate(-60.064454641911816,250.15874501446794)" style="fill-opacity: 0; display: none;">DragControl</text><text transform="translate(-38.65880632354594,193.2238071449137)" style="fill-opacity: 0; display: none;">AnchorControl</text><text transform="translate(-41.7189419059419,232.4492459594321)" style="fill-opacity: 0; display: none;">Control</text><text transform="translate(-147.222010475389,232.6838180047441)" style="fill-opacity: 0; display: none;">IControl</text><text transform="translate(-125.11483806180267,-114.07864716344066)" style="fill-opacity: 0; display: none;">Legend</text><text transform="translate(-58.45958711080845,-114.07864716344066)" style="fill-opacity: 0; display: none;">LegendRange</text><text transform="translate(-83.29309906655872,-74.37848646432353)" style="fill-opacity: 0; display: none;">LegendItem</text><text transform="translate(-235.16090613633895,-186.75360288601516)" style="fill-opacity: 0; display: none;">Axis</text><text transform="translate(-170.66956809409803,-186.75360288601516)" style="fill-opacity: 0; display: none;">CartesianAxes</text><text transform="translate(-189.98977787119404,-159.75726148498293)" style="fill-opacity: 0; display: none;">Axes</text><text transform="translate(-190.81335728064803,-209.6062225288363)" style="fill-opacity: 0; display: none;">AxisGridLine</text><text transform="translate(-200.23528139645484,-222.26419171562887)" style="fill-opacity: 0; display: none;">AxisLabel</text><text transform="translate(-8.399057585608828,-117.88804072891843)" style="fill-opacity: 0; display: none;">DataEvent</text><text transform="translate(17.929321437000734,-117.88804072891843)" style="fill-opacity: 0; display: none;">SelectionEvent</text><text transform="translate(5.93814473913693,-96.46252507593606)" style="fill-opacity: 0; display: none;">TooltipEvent</text><text transform="translate(5.843653226840501,-136.89691124459856)" style="fill-opacity: 0; display: none;">VisualizationEvent</text><text transform="translate(219.5740648778726,-30.00239818783984)" style="fill-opacity: 0; display: none;">ColorPalette</text><text transform="translate(255.28638944852273,-30.00239818783984)" style="fill-opacity: 0; display: none;">SizePalette</text><text transform="translate(244.597547163131,-5.43516121652226)" style="fill-opacity: 0; display: none;">ShapePalette</text><text transform="translate(243.97776581552293,-51.30392663658028)" style="fill-opacity: 0; display: none;">Palette</text><text transform="translate(359.94381204155803,-21.45869357759261)" style="fill-opacity: 0; display: none;">FibonacciHeap</text><text transform="translate(396.7375453093869,-21.45869357759261)" style="fill-opacity: 0; display: none;">HeapNode</text><text transform="translate(170.1687051510829,24.519939537318233)" style="fill-opacity: 0; display: none;">SparseMatrix</text><text transform="translate(202.4125048606879,24.519939537318233)" style="fill-opacity: 0; display: none;">DenseMatrix</text><text transform="translate(186.7315354210145,51.21279496490512)" style="fill-opacity: 0; display: none;">IMatrix</text><text transform="translate(122.04034878947412,286.73835705460607)" style="fill-opacity: 0; display: none;">Interpolator</text><text transform="translate(161.06707118635867,286.73835705460607)" style="fill-opacity: 0; display: none;">MatrixInterpolator</text><text transform="translate(151.62700124174805,311.515033320176)" style="fill-opacity: 0; display: none;">ColorInterpolator</text><text transform="translate(151.62256671068107,261.9787078603891)" style="fill-opacity: 0; display: none;">RectangleInterpolator</text><text transform="translate(129.22702882827465,249.01067072464795)" style="fill-opacity: 0; display: none;">ArrayInterpolator</text><text transform="translate(129.6904063270883,323.4210824369707)" style="fill-opacity: 0; display: none;">PointInterpolator</text><text transform="translate(176.0241363631802,266.39690811389784)" style="fill-opacity: 0; display: none;">ObjectInterpolator</text><text transform="translate(175.12737211032376,306.707935918699)" style="fill-opacity: 0; display: none;">NumberInterpolator</text><text transform="translate(107.10222890284284,320.0143189745617)" style="fill-opacity: 0; display: none;">DateInterpolator</text><text transform="translate(142.12960035001637,-193.16811556331808)" style="fill-opacity: 0; display: none;">range</text><text transform="translate(159.044771837129,-193.16811556331808)" style="fill-opacity: 0; display: none;">iff</text><text transform="translate(150.69557201613836,-179.2931061942546)" style="fill-opacity: 0; display: none;">gte</text><text transform="translate(150.6953640623834,-207.00659985102018)" style="fill-opacity: 0; display: none;">lte</text><text transform="translate(135.27967610499942,-207.83886944486292)" style="fill-opacity: 0; display: none;">gt</text><text transform="translate(135.24593070005253,-178.51316507669068)" style="fill-opacity: 0; display: none;">mul</text><text transform="translate(166.1064210066946,-207.59501142835703)" style="fill-opacity: 0; display: none;">sub</text><text transform="translate(166.13457349081543,-178.7609325752019)" style="fill-opacity: 0; display: none;">neq</text><text transform="translate(126.14481210870643,-195.53710139226055)" style="fill-opacity: 0; display: none;">lt</text><text transform="translate(120.21887948996924,-181.45284739096516)" style="fill-opacity: 0; display: none;">div</text><text transform="translate(174.95550136929157,-195.12504729396377)" style="fill-opacity: 0; display: none;">eq</text><text transform="translate(181.21624374104053,-181.21552457189372)" style="fill-opacity: 0; display: none;">add</text><text transform="translate(143.61850385720217,-220.65551926035366)" style="fill-opacity: 0; display: none;">mod</text><text transform="translate(143.48723229613685,-166.5165859489111)" style="fill-opacity: 0; display: none;">isa</text><text transform="translate(158.07221601007674,-219.70499723077904)" style="fill-opacity: 0; display: none;">fn</text><text transform="translate(158.13204046676512,-167.1996597865776)" style="fill-opacity: 0; display: none;">not</text><text transform="translate(151.7187553311771,-156.28960230980434)" style="fill-opacity: 0; display: none;">stddev</text><text transform="translate(121.4313980505526,-208.54387813857483)" style="fill-opacity: 0; display: none;">xor</text><text transform="translate(179.82032607316202,-207.91708883786427)" style="fill-opacity: 0; display: none;">variance</text><text transform="translate(170.47765090556604,-165.7919644823597)" style="fill-opacity: 0; display: none;">and</text><text transform="translate(130.6679127328392,-165.6560988340165)" style="fill-opacity: 0; display: none;">or</text><text transform="translate(170.78475248496883,-220.27457644573823)" style="fill-opacity: 0; display: none;">orderby</text><text transform="translate(130.15439919138086,-220.361585959039)" style="fill-opacity: 0; display: none;">update</text><text transform="translate(119.15247557695044,-168.0662172602541)" style="fill-opacity: 0; display: none;">where</text><text transform="translate(182.0896155936301,-167.84816181101237)" style="fill-opacity: 0; display: none;">select</text><text transform="translate(152.21529090547526,-230.87563232790595)" style="fill-opacity: 0; display: none;">distinct</text><text transform="translate(118.60023404965146,-220.09446970090966)" style="fill-opacity: 0; display: none;">average</text><text transform="translate(182.27700179725443,-219.3860516406297)" style="fill-opacity: 0; display: none;">max</text><text transform="translate(113.12925021759496,-192.71455646905272)" style="fill-opacity: 0; display: none;">min</text><text transform="translate(187.99728971928548,-192.62638458933466)" style="fill-opacity: 0; display: none;">sum</text><text transform="translate(190.66856722548445,-203.5811797537518)" style="fill-opacity: 0; display: none;">count</text><text transform="translate(110.78405583639413,-203.66270544680808)" style="fill-opacity: 0; display: none;">_</text><text transform="translate(-35.94915612978644,-335.746575141824)" style="fill-opacity: 0; display: none;">MaxFlowMinCut</text><text transform="translate(9.557455679790904,-335.746575141824)" style="fill-opacity: 0; display: none;">ShortestPaths</text><text transform="translate(-10.299223372689537,-298.53445971109096)" style="fill-opacity: 0; display: none;">LinkDistance</text><text transform="translate(-10.57858317509192,-367.93193281293446)" style="fill-opacity: 0; display: none;">BetweennessCentrality</text><text transform="translate(-42.79163679539612,-375.89066056868654)" style="fill-opacity: 0; display: none;">SpanningTree</text><text transform="translate(64.53617637151227,-343.1837221188142)" style="fill-opacity: 0; display: none;">HierarchicalCluster</text><text transform="translate(104.66365831336962,-343.1837221188142)" style="fill-opacity: 0; display: none;">AgglomerativeCluster</text><text transform="translate(89.23194673027136,-311.8891541037498)" style="fill-opacity: 0; display: none;">CommunityStructure</text><text transform="translate(88.12438196441768,-363.18640013768567)" style="fill-opacity: 0; display: none;">MergeEdge</text><text transform="translate(42.12744721222213,-277.48606787465286)" style="fill-opacity: 0; display: none;">AspectRatioBanker</text><text transform="translate(322.5204103830178,-168.90039800746766)" style="fill-opacity: 0; display: none;">GraphMLConverter</text><text transform="translate(367.78785929168004,-168.90039800746766)" style="fill-opacity: 0; display: none;">DelimitedTextConverter</text><text transform="translate(352.08271689933537,-141.22470605735938)" style="fill-opacity: 0; display: none;">JSONConverter</text><text transform="translate(351.54297132840765,-192.92883943018413)" style="fill-opacity: 0; display: none;">IDataConverter</text><text transform="translate(334.829812837587,-201.92363741174685)" style="fill-opacity: 0; display: none;">Converters</text><text transform="translate(-366.8693872514334,44.651423342330354)" style="fill-opacity: 0; display: none;">NodeLinkTreeLayout</text><text transform="translate(-306.03928629024443,44.651423342330354)" style="fill-opacity: 0; display: none;">RadialTreeLayout</text><text transform="translate(-335.8588607489133,96.51196498510159)" style="fill-opacity: 0; display: none;">CirclePackingLayout</text><text transform="translate(-335.8923185203191,-3.252162835826311)" style="fill-opacity: 0; display: none;">CircleLayout</text><text transform="translate(-388.1600603262172,-8.09041789373691)" style="fill-opacity: 0; display: none;">TreeMapLayout</text><text transform="translate(-283.62037351675656,-6.861245102970883)" style="fill-opacity: 0; display: none;">StackedAreaLayout</text><text transform="translate(-390.63320330521464,95.13744558904021)" style="fill-opacity: 0; display: none;">ForceDirectedLayout</text><text transform="translate(-281.9152289147228,93.44971477085356)" style="fill-opacity: 0; display: none;">Layout</text><text transform="translate(-418.1815645516036,30.291150021014683)" style="fill-opacity: 0; display: none;">AxisLayout</text><text transform="translate(-258.4580009834887,30.993629165767057)" style="fill-opacity: 0; display: none;">IcicleTreeLayout</text><text transform="translate(-427.9999050586511,71.06143487538564)" style="fill-opacity: 0; display: none;">DendrogramLayout</text><text transform="translate(-250.32579154061062,66.60133351254136)" style="fill-opacity: 0; display: none;">BundledEdgeRouter</text><text transform="translate(-359.12074041254425,-38.53803135700286)" style="fill-opacity: 0; display: none;">IndentedTreeLayout</text><text transform="translate(-311.7262262126189,-36.596207397803305)" style="fill-opacity: 0; display: none;">PieLayout</text><text transform="translate(-366.91142223191326,119.55109902139235)" style="fill-opacity: 0; display: none;">RandomLayout</text><text transform="translate(-199.09444358802463,47.918135544897545)" style="fill-opacity: 0; display: none;">Labeler</text><text transform="translate(-154.42360228784233,47.918135544897545)" style="fill-opacity: 0; display: none;">RadialLabeler</text><text transform="translate(-168.45860560801881,78.30951153706506)" style="fill-opacity: 0; display: none;">StackedAreaLabeler</text><text transform="translate(-218.54128352641447,142.82181337180938)" style="fill-opacity: 0; display: none;">PropertyEncoder</text><text transform="translate(-182.7285128863372,142.82181337180938)" style="fill-opacity: 0; display: none;">Encoder</text><text transform="translate(-200.4857419818139,171.52699060126267)" style="fill-opacity: 0; display: none;">ColorEncoder</text><text transform="translate(-200.50128699251965,118.37112769711449)" style="fill-opacity: 0; display: none;">SizeEncoder</text><text transform="translate(-224.36498531824105,113.44048752481841)" style="fill-opacity: 0; display: none;">ShapeEncoder</text><text transform="translate(-230.39515436107303,-40.515425040551854)" style="fill-opacity: 0; display: none;">Distortion</text><text transform="translate(-189.86362193607735,-40.515425040551854)" style="fill-opacity: 0; display: none;">BifocalDistortion</text><text transform="translate(-207.14872843405877,-9.912660627274986)" style="fill-opacity: 0; display: none;">FisheyeDistortion</text><text transform="translate(-295.30144582856946,-93.592147504301)" style="fill-opacity: 0; display: none;">FisheyeTreeFilter</text><text transform="translate(-258.5986146440468,-93.592147504301)" style="fill-opacity: 0; display: none;">VisibilityFilter</text><text transform="translate(-273.80478541297487,-64.80118839319941)" style="fill-opacity: 0; display: none;">GraphDistanceFilter</text><text transform="translate(-57.13433316060405,104.74442473021166)" style="fill-opacity: 0; display: none;">EdgeRenderer</text><text transform="translate(-22.881132932317936,104.74442473021166)" style="fill-opacity: 0; display: none;">ShapeRenderer</text><text transform="translate(-34.798844281460724,122.94919141730541)" style="fill-opacity: 0; display: none;">ArrowType</text><text transform="translate(-35.20629009285914,89.2727712926504)" style="fill-opacity: 0; display: none;">IRenderer</text></g></svg>