<svg version="1.1" xmlns="http://www.w3.org/2000/svg" viewBox="0 0 1620 1121.69140625" width="1620" height="1121.69140625">
  <!-- svg-source:excalidraw -->
  
  <defs>
    <style class="style-fonts">
      @font-face {
        font-family: "Virgil";
        src: url("https://file%2B.vscode-resource.vscode-cdn.net/Users/lu/.vscode/extensions/pomdtr.excalidraw-editor-3.7.4/public//dist/excalidraw-assets/Virgil.woff2");
      }
      @font-face {
        font-family: "Cascadia";
        src: url("https://file%2B.vscode-resource.vscode-cdn.net/Users/lu/.vscode/extensions/pomdtr.excalidraw-editor-3.7.4/public//dist/excalidraw-assets/Cascadia.woff2");
      }
      @font-face {
        font-family: "Assistant";
        src: url("https://file%2B.vscode-resource.vscode-cdn.net/Users/lu/.vscode/extensions/pomdtr.excalidraw-editor-3.7.4/public//dist/excalidraw-assets/Assistant-Regular.woff2");
      }
    </style>
    
  </defs>
  <rect x="0" y="0" width="1620" height="1121.69140625" fill="#ffffff"></rect><g stroke-linecap="round" transform="translate(10 10) rotate(0 800 149.02929687499997)"><path d="M32 0 C390.84 3.66, 750.57 2.89, 1568 0 M32 0 C646.51 -5.79, 1260.39 -5.47, 1568 0 M1568 0 C1588.88 -0.98, 1599.73 9.38, 1600 32 M1568 0 C1589.54 1.86, 1601.44 11.9, 1600 32 M1600 32 C1598.25 117.65, 1598.75 201.21, 1600 266.06 M1600 32 C1598.83 122.33, 1599.27 214.09, 1600 266.06 M1600 266.06 C1600.78 287.11, 1588.23 298.97, 1568 298.06 M1600 266.06 C1599.83 287.36, 1588.53 297.43, 1568 298.06 M1568 298.06 C971.82 302.89, 376.22 303.67, 32 298.06 M1568 298.06 C1237.34 304.08, 905.57 303.81, 32 298.06 M32 298.06 C11.44 299.83, 0.72 289.04, 0 266.06 M32 298.06 C9.72 296.27, 0.11 286.17, 0 266.06 M0 266.06 C1.56 205.03, 1.29 141.78, 0 32 M0 266.06 C-0.49 173.22, 0.1 80.43, 0 32 M0 32 C-0.39 10.14, 10.98 0.66, 32 0 M0 32 C-0.79 9.8, 12.76 1.39, 32 0" stroke="#f08c00" stroke-width="2" fill="none"></path></g><g transform="translate(728.2500228881836 146.52929687499994) rotate(0 81.7499771118164 12.5)"><text x="81.7499771118164" y="0" font-family="Segoe UI Emoji" font-size="20px" fill="#f08c00" text-anchor="middle" style="white-space: pre;" direction="ltr" dominant-baseline="text-before-edge">显示交互层 ViewX</text></g><g stroke-linecap="round" transform="translate(10 410) rotate(0 800 150)"><path d="M32 0 C467.99 -3.16, 902.49 -3.64, 1568 0 M32 0 C500.03 4.05, 967.04 3.94, 1568 0 M1568 0 C1591.14 1.74, 1600.55 10.38, 1600 32 M1568 0 C1590.23 -1.62, 1599.5 12.97, 1600 32 M1600 32 C1599.46 125.42, 1598.11 217.15, 1600 268 M1600 32 C1598.15 87.29, 1597.9 141.76, 1600 268 M1600 268 C1600.2 290.76, 1587.53 300.55, 1568 300 M1600 268 C1602.1 287.79, 1590.98 298.4, 1568 300 M1568 300 C1244.13 303.82, 920.43 303.38, 32 300 M1568 300 C961.6 299.81, 355.91 299.38, 32 300 M32 300 C10.54 301.62, 0.21 288.21, 0 268 M32 300 C12.3 299.56, 0.16 290.38, 0 268 M0 268 C-0.56 212.05, 0.24 154.12, 0 32 M0 268 C1.29 196.34, 1.18 125.21, 0 32 M0 32 C1.98 11.18, 11.45 0.36, 32 0 M0 32 C2.07 10.19, 11.73 0.56, 32 0" stroke="#2f9e44" stroke-width="2" fill="none"></path></g><g transform="translate(733.3400192260742 547.5) rotate(0 76.65998077392578 12.5)"><text x="76.65998077392578" y="0" font-family="Segoe UI Emoji" font-size="20px" fill="#2f9e44" text-anchor="middle" style="white-space: pre;" direction="ltr" dominant-baseline="text-before-edge">变换传输层 FunX</text></g><g stroke-linecap="round" transform="translate(10 810) rotate(0 800 150.845703125)"><path d="M32 0 C396.26 5.67, 761.62 4.43, 1568 0 M32 0 C437.99 2.36, 843.98 2.17, 1568 0 M1568 0 C1589.98 0.95, 1600.67 12.56, 1600 32 M1568 0 C1588.24 -1.6, 1598.64 9.62, 1600 32 M1600 32 C1602.54 100.34, 1601.93 166.26, 1600 269.69 M1600 32 C1599.87 107.75, 1599.81 183.54, 1600 269.69 M1600 269.69 C1598.96 292.82, 1587.82 300.36, 1568 301.69 M1600 269.69 C1601.07 293.05, 1591.11 299.83, 1568 301.69 M1568 301.69 C1010.58 306.61, 454.68 306.62, 32 301.69 M1568 301.69 C1089.97 295.89, 611.96 295.91, 32 301.69 M32 301.69 C11.19 302.24, -1.3 290.91, 0 269.69 M32 301.69 C12.69 302.83, 0.19 290.4, 0 269.69 M0 269.69 C0.41 207.98, -0.14 150.11, 0 32 M0 269.69 C1.01 178.93, 1.19 88.19, 0 32 M0 32 C0.25 8.87, 11.36 1.55, 32 0 M0 32 C-1.87 8.74, 8.37 1.59, 32 0" stroke="#1971c2" stroke-width="2" fill="none"></path></g><g transform="translate(728.5100250244141 948.345703125) rotate(0 81.48997497558594 12.5)"><text x="81.48997497558594" y="0" font-family="Segoe UI Emoji" font-size="20px" fill="#1971c2" text-anchor="middle" style="white-space: pre;" direction="ltr" dominant-baseline="text-before-edge">数据存储层 DataX</text></g><g stroke-linecap="round" transform="translate(410 290) rotate(0 39.982421875 70)"><path d="M51.79 3.36 C57.43 5.11, 62.61 11.76, 67.02 19.09 C71.43 26.43, 76.1 36.82, 78.26 47.38 C80.41 57.95, 81.18 71.64, 79.95 82.47 C78.72 93.3, 74.58 103.92, 70.87 112.37 C67.16 120.81, 63.15 128.7, 57.68 133.13 C52.21 137.57, 44.44 139.52, 38.05 138.96 C31.67 138.41, 24.84 135.26, 19.37 129.8 C13.9 124.34, 8.46 115.28, 5.25 106.19 C2.03 97.1, 0.31 85.95, 0.07 75.25 C-0.18 64.55, 1.28 51.85, 3.77 41.99 C6.26 32.14, 10.16 22.98, 15.01 16.11 C19.87 9.24, 26.36 2.52, 32.88 0.76 C39.4 -1, 50.09 4.44, 54.12 5.56 C58.15 6.68, 57.41 6.67, 57.09 7.47 M29.67 2.81 C35.14 -1.45, 42.75 -1.59, 48.56 0.32 C54.36 2.23, 59.73 7.37, 64.5 14.27 C69.27 21.17, 74.48 31.45, 77.17 41.7 C79.87 51.95, 81.21 64.98, 80.67 75.76 C80.13 86.54, 77.1 97.3, 73.91 106.39 C70.72 115.48, 66.8 124.72, 61.54 130.29 C56.28 135.86, 48.55 139.44, 42.35 139.82 C36.15 140.19, 29.82 136.84, 24.35 132.51 C18.88 128.18, 13.65 122.4, 9.53 113.81 C5.41 105.23, 0.86 91.91, -0.38 80.99 C-1.63 70.07, -0.07 58.36, 2.06 48.28 C4.19 38.21, 7.73 28.14, 12.38 20.54 C17.03 12.95, 27.28 5.55, 29.98 2.73 C32.67 -0.09, 28.74 2.31, 28.53 3.62" stroke="#ffd43b" stroke-width="2" fill="none"></path></g><g transform="translate(427.1805890890238 347.50252531694167) rotate(0 23.029991149902344 12.5)"><text x="23.029991149902344" y="0" font-family="Segoe UI Emoji" font-size="20px" fill="#ffd43b" text-anchor="middle" style="white-space: pre;" direction="ltr" dominant-baseline="text-before-edge">Next</text></g><g stroke-linecap="round" transform="translate(310 290) rotate(0 40 70)"><path d="M37.58 0.95 C43.29 -0.54, 50.99 1.4, 56.81 5.98 C62.63 10.55, 68.74 19.76, 72.51 28.4 C76.29 37.05, 78.41 47.14, 79.45 57.84 C80.49 68.53, 80.59 82.11, 78.74 92.56 C76.88 103.01, 72.78 113.04, 68.34 120.55 C63.9 128.07, 58.27 134.67, 52.09 137.65 C45.91 140.63, 37.47 140.79, 31.25 138.44 C25.02 136.09, 19.24 130.44, 14.72 123.55 C10.21 116.67, 6.6 106.98, 4.17 97.15 C1.74 87.32, -0.09 75.37, 0.16 64.57 C0.42 53.77, 2.54 41.63, 5.69 32.34 C8.85 23.06, 12.51 14.16, 19.09 8.87 C25.67 3.59, 39.73 1.33, 45.16 0.62 C50.59 -0.09, 51.75 3.48, 51.68 4.62 M47.31 -0.21 C52.89 0.29, 59.54 7.05, 64.27 14.07 C69.01 21.08, 73.06 31.65, 75.74 41.88 C78.42 52.1, 80.66 64.49, 80.33 75.42 C80.01 86.34, 76.89 98.32, 73.8 107.44 C70.71 116.56, 66.81 124.97, 61.79 130.14 C56.77 135.3, 49.89 137.73, 43.66 138.44 C37.42 139.16, 30.04 138.43, 24.37 134.43 C18.7 130.43, 13.78 123.36, 9.65 114.46 C5.52 105.55, 0.87 91.87, -0.41 80.99 C-1.68 70.1, 0.01 59.1, 2.01 49.14 C4.01 39.18, 7.41 29.15, 11.59 21.23 C15.77 13.31, 21.28 4.94, 27.11 1.65 C32.93 -1.64, 43.31 1.3, 46.54 1.5 C49.77 1.71, 46.28 1.65, 46.46 2.87" stroke="#ffd43b" stroke-width="2" fill="none"></path></g><g transform="translate(330.11574553720607 347.50252531694167) rotate(0 20.09998321533203 12.5)"><text x="20.09998321533203" y="0" font-family="Segoe UI Emoji" font-size="20px" fill="#ffd43b" text-anchor="middle" style="white-space: pre;" direction="ltr" dominant-baseline="text-before-edge">Blitz</text></g><g stroke-linecap="round" transform="translate(210 290) rotate(0 40 70)"><path d="M27.52 4.59 C32.85 0.09, 39.7 -1.13, 45.69 0.25 C51.68 1.64, 58.37 6.45, 63.45 12.9 C68.54 19.35, 73.41 29.07, 76.18 38.96 C78.95 48.84, 80.34 61.39, 80.09 72.21 C79.84 83.03, 77.74 94.57, 74.69 103.88 C71.64 113.19, 67.07 122.02, 61.8 128.07 C56.52 134.12, 49.01 138.87, 43.03 140.17 C37.05 141.47, 31.63 140.15, 25.92 135.87 C20.2 131.58, 13.01 123.05, 8.73 114.45 C4.46 105.86, 1.59 94.61, 0.28 84.28 C-1.03 73.96, -0.85 62.68, 0.87 52.48 C2.6 42.27, 5.62 31.47, 10.63 23.05 C15.64 14.64, 27.04 5.44, 30.93 1.99 C34.83 -1.46, 33.9 1.14, 34.01 2.37 M31.12 3.54 C36.29 0.17, 42.32 0.34, 48.08 2.53 C53.83 4.72, 60.59 9.69, 65.67 16.68 C70.75 23.67, 76.06 34.48, 78.56 44.47 C81.05 54.46, 81.36 65.83, 80.64 76.64 C79.91 87.45, 77.78 100.11, 74.19 109.33 C70.61 118.56, 64.63 126.76, 59.12 131.98 C53.61 137.2, 47.13 140.74, 41.13 140.64 C35.12 140.53, 28.84 136.57, 23.09 131.33 C17.34 126.08, 10.28 117.69, 6.65 109.15 C3.02 100.6, 2.04 90.51, 1.3 80.04 C0.57 69.56, 0.45 56.62, 2.24 46.29 C4.03 35.96, 7.19 25.39, 12.05 18.08 C16.92 10.77, 28.46 4.68, 31.42 2.4 C34.38 0.12, 29.62 3.16, 29.8 4.39" stroke="#ffd43b" stroke-width="2" fill="none"></path></g><g transform="translate(231.96573638193263 347.50252531694167) rotate(0 18.24999237060547 12.5)"><text x="18.24999237060547" y="0" font-family="Segoe UI Emoji" font-size="20px" fill="#ffd43b" text-anchor="middle" style="white-space: pre;" direction="ltr" dominant-baseline="text-before-edge">Umi</text></g><g stroke-linecap="round" transform="translate(510 290) rotate(0 50 70)"><path d="M26.11 9.15 C32.32 3.48, 41.47 1.29, 49.34 0.92 C57.21 0.55, 66.43 1.95, 73.34 6.92 C80.26 11.88, 86.37 21.81, 90.82 30.73 C95.28 39.66, 99.15 49.93, 100.08 60.46 C101.01 70.99, 99.1 83.76, 96.4 93.91 C93.71 104.06, 89.68 114.11, 83.93 121.36 C78.18 128.61, 69.33 134.72, 61.89 137.41 C54.46 140.1, 46.91 139.92, 39.32 137.49 C31.74 135.06, 22.52 129.82, 16.37 122.82 C10.22 115.83, 5.25 105.68, 2.43 95.51 C-0.4 85.34, -1.59 72.76, -0.58 61.81 C0.44 50.87, 3 39.48, 8.53 29.84 C14.06 20.19, 27.56 8.46, 32.59 3.95 C37.61 -0.56, 38.4 1.59, 38.69 2.78 M73.69 6.8 C80.26 10.83, 85.13 21.02, 89.65 30.23 C94.17 39.44, 99.76 51.28, 100.82 62.05 C101.88 72.82, 98.88 84.87, 96.01 94.83 C93.13 104.78, 89.08 114.39, 83.6 121.77 C78.11 129.15, 70.44 136.46, 63.11 139.09 C55.77 141.73, 47.08 140.42, 39.59 137.57 C32.1 134.73, 24.28 129.05, 18.16 121.99 C12.05 114.94, 5.87 105.39, 2.91 95.24 C-0.05 85.09, -0.8 71.82, 0.4 61.11 C1.6 50.4, 5.85 39.89, 10.1 30.99 C14.34 22.09, 19.45 12.71, 25.85 7.71 C32.25 2.72, 40.57 0.8, 48.5 1 C56.43 1.21, 69.26 7.82, 73.41 8.94 C77.57 10.07, 73.83 7.08, 73.44 7.76" stroke="#ffd43b" stroke-width="2" fill="none"></path></g><g transform="translate(531.6346816926257 347.50252531694167) rotate(0 28.509979248046875 12.5)"><text x="28.509979248046875" y="0" font-family="Segoe UI Emoji" font-size="20px" fill="#ffd43b" text-anchor="middle" style="white-space: pre;" direction="ltr" dominant-baseline="text-before-edge">Remix</text></g><g stroke-linecap="round" transform="translate(1170 610) rotate(0 40 150)"><path d="M49.28 3.94 C53.88 5.35, 57.75 15.92, 61.52 25.85 C65.29 35.79, 68.89 48.88, 71.9 63.55 C74.9 78.22, 78.25 96.23, 79.54 113.86 C80.82 131.5, 80.21 151.21, 79.6 169.38 C78.98 187.55, 78.25 207.15, 75.86 222.89 C73.47 238.63, 69.19 252.18, 65.26 263.83 C61.33 275.48, 56.61 286.81, 52.29 292.81 C47.97 298.81, 43.89 300.59, 39.33 299.85 C34.77 299.11, 29.48 295.53, 24.93 288.37 C20.38 281.21, 15.48 269.57, 12.02 256.88 C8.57 244.18, 6.21 228.6, 4.18 212.19 C2.16 195.79, 0.11 176.52, -0.11 158.44 C-0.32 140.35, 1.44 121, 2.89 103.67 C4.35 86.34, 5.64 68.34, 8.61 54.44 C11.58 40.54, 16.53 28.97, 20.71 20.27 C24.89 11.58, 28.34 4.45, 33.7 2.29 C39.06 0.12, 49.22 5.47, 52.86 7.28 C56.49 9.08, 55.77 10.69, 55.5 13.11 M53.17 8.24 C57.8 11.62, 61.17 24.03, 65.04 35.67 C68.91 47.31, 74.16 62.08, 76.38 78.08 C78.6 94.09, 77.92 113.7, 78.36 131.7 C78.8 149.69, 79.97 168.89, 79.01 186.06 C78.05 203.24, 75.3 220.07, 72.61 234.75 C69.92 249.43, 66.61 263.92, 62.86 274.13 C59.1 284.34, 55 292.02, 50.05 296.02 C45.1 300.02, 38.04 300.93, 33.15 298.13 C28.27 295.34, 24.77 287.95, 20.76 279.26 C16.75 270.57, 12.22 260, 9.1 245.99 C5.98 231.99, 3.37 212.69, 2.05 195.22 C0.72 177.75, 0.69 158.99, 1.14 141.18 C1.58 123.36, 2.72 104.66, 4.72 88.31 C6.72 71.95, 9.75 55.5, 13.14 43.05 C16.54 30.6, 20.62 20.64, 25.09 13.6 C29.56 6.57, 35.08 1.85, 39.97 0.83 C44.86 -0.2, 52.45 5.74, 54.41 7.46 C56.36 9.18, 52.08 8.58, 51.7 11.15" stroke="#38d9a9" stroke-width="2" fill="none"></path></g><g transform="translate(1188.8757476734365 747.4339828220178) rotate(0 21.339981079101562 12.5)"><text x="21.339981079101562" y="0" font-family="Segoe UI Emoji" font-size="20px" fill="#38d9a9" text-anchor="middle" style="white-space: pre;" direction="ltr" dominant-baseline="text-before-edge">Nest</text></g><g stroke-linecap="round" transform="translate(430 630) rotate(0 87.333984375 24.5)"><path d="M49.09 2.03 C60.07 0.29, 75.22 0.69, 88.62 0.69 C102.03 0.69, 117.77 0.42, 129.52 2.02 C141.27 3.63, 151.81 6.98, 159.11 10.31 C166.41 13.63, 171.89 18.17, 173.31 21.96 C174.74 25.75, 172.47 29.39, 167.66 33.07 C162.85 36.75, 154.76 41.34, 144.46 44.05 C134.17 46.77, 119.11 48.69, 105.89 49.36 C92.66 50.03, 78.13 49.09, 65.1 48.08 C52.07 47.07, 37.57 45.95, 27.72 43.3 C17.87 40.66, 10.56 35.94, 6 32.19 C1.43 28.44, -1.41 24.56, 0.34 20.8 C2.09 17.05, 5.79 13.04, 16.48 9.65 C27.16 6.26, 53.75 1.93, 64.46 0.47 C75.16 -0.98, 80.31 0.4, 80.7 0.9 M70.25 1.51 C82.78 0.48, 99.83 -0.78, 112.85 0.12 C125.88 1.02, 138.75 4.31, 148.41 6.92 C158.07 9.53, 166.55 11.99, 170.79 15.8 C175.03 19.61, 176.36 25.81, 173.86 29.78 C171.35 33.76, 164.11 36.91, 155.77 39.64 C147.42 42.36, 135.65 44.79, 123.79 46.14 C111.93 47.48, 97.86 47.99, 84.59 47.7 C71.32 47.41, 55.79 46.15, 44.16 44.41 C32.54 42.67, 22.23 40.39, 14.83 37.24 C7.43 34.09, 1.14 29.29, -0.24 25.5 C-1.62 21.71, 0.99 17.65, 6.56 14.49 C12.13 11.34, 22.86 9.05, 33.17 6.58 C43.49 4.1, 62.04 0.36, 68.43 -0.36 C74.83 -1.09, 70.93 1.92, 71.54 2.22" stroke="#38d9a9" stroke-width="2" fill="none"></path></g><g transform="translate(460.7895766562374 642.1758838609296) rotate(0 56.789955139160156 12.5)"><text x="56.789955139160156" y="0" font-family="Segoe UI Emoji" font-size="20px" fill="#38d9a9" text-anchor="middle" style="white-space: pre;" direction="ltr" dominant-baseline="text-before-edge">ElectricSQL</text></g><g stroke-linecap="round" transform="translate(1050 610) rotate(0 40 150)"><path d="M51.67 7.15 C56.08 10.06, 60.15 21.89, 63.79 32.89 C67.44 43.89, 70.87 57.69, 73.54 73.13 C76.21 88.57, 78.76 107.76, 79.83 125.54 C80.9 143.31, 80.92 162.27, 79.96 179.8 C78.99 197.34, 76.96 215.32, 74.06 230.73 C71.16 246.14, 66.49 261.63, 62.55 272.28 C58.61 282.93, 54.77 290.02, 50.41 294.64 C46.06 299.26, 41.27 301.92, 36.42 300.01 C31.56 298.09, 25.55 291.72, 21.28 283.14 C17.02 274.56, 14.03 262.02, 10.83 248.51 C7.63 235.01, 3.81 219.21, 2.11 202.1 C0.41 185, 0.55 164.07, 0.62 145.89 C0.7 127.71, 0.97 109.68, 2.56 93.04 C4.16 76.41, 6.91 59.26, 10.21 46.06 C13.51 32.87, 17.75 21.53, 22.36 13.86 C26.98 6.19, 31.92 -0.18, 37.91 0.03 C43.91 0.24, 54.36 10.22, 58.34 15.09 C62.32 19.97, 62.05 26.99, 61.8 29.27 M24.27 13.07 C28.22 3.97, 33.01 2.49, 37.56 1.44 C42.11 0.4, 46.83 1.75, 51.56 6.81 C56.29 11.87, 62.25 20.77, 65.93 31.79 C69.61 42.8, 71.15 57.42, 73.63 72.88 C76.11 88.35, 79.73 106.86, 80.82 124.57 C81.92 142.28, 81.39 161.36, 80.2 179.16 C79 196.95, 76.44 215.82, 73.67 231.34 C70.9 246.87, 67.32 261.82, 63.55 272.32 C59.78 282.82, 55.61 289.8, 51.07 294.33 C46.53 298.86, 41.05 301.41, 36.33 299.5 C31.6 297.58, 26.97 291.18, 22.71 282.86 C18.44 274.54, 14.11 263.35, 10.74 249.57 C7.37 235.8, 4.04 217.26, 2.5 200.2 C0.96 183.15, 1.54 164.97, 1.5 147.24 C1.46 129.52, 0.61 110.56, 2.24 93.83 C3.87 77.11, 8 60.24, 11.29 46.88 C14.57 33.53, 20.21 18.68, 21.94 13.72 C23.68 8.76, 21.31 14.93, 21.71 17.12" stroke="#38d9a9" stroke-width="2" fill="none"></path></g><g transform="translate(1067.405754082128 747.4339828220179) rotate(0 22.809974670410156 12.5)"><text x="22.809974670410156" y="0" font-family="Segoe UI Emoji" font-size="20px" fill="#38d9a9" text-anchor="middle" style="white-space: pre;" direction="ltr" dominant-baseline="text-before-edge">Nitro</text></g><g stroke-linecap="round" transform="translate(350 930) rotate(0 96.0390625 28.44921875)"><path d="M76.89 -0.39 C89.54 -1.71, 106.22 -1.27, 119.83 -0.02 C133.45 1.23, 147.98 4.16, 158.57 7.13 C169.15 10.1, 177.61 14.09, 183.35 17.81 C189.1 21.52, 193.35 25.46, 193.03 29.41 C192.71 33.37, 187.92 38.02, 181.44 41.54 C174.95 45.05, 165.14 47.93, 154.13 50.51 C143.11 53.08, 129.14 55.99, 115.36 56.98 C101.57 57.96, 84.89 57.51, 71.42 56.4 C57.95 55.29, 45.17 52.98, 34.51 50.32 C23.84 47.66, 13.26 44.25, 7.44 40.45 C1.63 36.65, -0.88 31.77, -0.4 27.54 C0.08 23.31, 3.92 18.69, 10.31 15.07 C16.7 11.46, 24.37 8.52, 37.93 5.87 C51.49 3.22, 79.94 0.19, 91.66 -0.82 C103.38 -1.82, 108.04 -0.59, 108.24 -0.14 M107.86 1.13 C121.04 0.9, 135.31 0.76, 147.11 3.08 C158.91 5.4, 171.22 11.18, 178.65 15.03 C186.08 18.87, 190.63 22.51, 191.68 26.14 C192.72 29.76, 189.73 33.2, 184.92 36.79 C180.1 40.37, 172.55 44.39, 162.8 47.64 C153.05 50.88, 139.68 54.5, 126.41 56.24 C113.15 57.99, 97.16 58.8, 83.23 58.08 C69.3 57.36, 54.39 54.35, 42.81 51.91 C31.24 49.47, 21.02 46.72, 13.79 43.45 C6.56 40.17, 0.55 36.49, -0.57 32.28 C-1.69 28.06, 2.02 22.1, 7.09 18.15 C12.16 14.21, 19.97 11.45, 29.83 8.6 C39.7 5.74, 53.48 2.55, 66.27 1.03 C79.07 -0.49, 99.77 -0.72, 106.6 -0.54 C113.43 -0.36, 107.43 1.59, 107.26 2.12" stroke="#1971c2" stroke-width="2" fill="none"></path></g><g transform="translate(387.7692292337932 945.8325832524156) rotate(0 58.35996091365814 12.5)"><text x="58.35996091365814" y="0" font-family="Segoe UI Emoji" font-size="20px" fill="#1971c2" text-anchor="middle" style="white-space: pre;" direction="ltr" dominant-baseline="text-before-edge">PostgreSQL</text></g><g stroke-linecap="round" transform="translate(190 890) rotate(0 60 24.5)"><path d="M81.14 0.78 C90.98 2.13, 101.59 6.49, 107.95 10.26 C114.32 14.04, 118.56 19.18, 119.33 23.45 C120.09 27.71, 117.78 32.2, 112.55 35.83 C107.32 39.46, 97.55 43.06, 87.93 45.25 C78.32 47.43, 65.32 49.27, 54.85 48.93 C44.39 48.59, 33.53 45.77, 25.13 43.22 C16.74 40.66, 8.49 37.65, 4.5 33.6 C0.5 29.54, -0.85 23.18, 1.15 18.9 C3.16 14.62, 8.92 10.95, 16.52 7.93 C24.13 4.92, 35.68 1.84, 46.79 0.81 C57.91 -0.22, 77.08 1.48, 83.2 1.74 C89.31 2, 83.88 2.01, 83.48 2.39 M37.69 2.29 C46.59 0.07, 59.92 -1.55, 70.74 -1.02 C81.56 -0.48, 94.6 2.42, 102.6 5.51 C110.6 8.6, 116.38 13.26, 118.74 17.53 C121.1 21.79, 120.36 26.51, 116.74 31.11 C113.13 35.71, 105.61 41.92, 97.06 45.11 C88.51 48.31, 76.28 50.04, 65.46 50.26 C54.64 50.48, 41.7 48.66, 32.15 46.42 C22.61 44.18, 13.51 40.73, 8.2 36.83 C2.88 32.92, -0.16 27.56, 0.24 22.99 C0.65 18.42, 4.4 13.17, 10.62 9.41 C16.85 5.64, 33.23 1.41, 37.61 0.39 C41.99 -0.63, 36.71 2.52, 36.91 3.26" stroke="#1971c2" stroke-width="2" fill="none"></path></g><g transform="translate(218.6336135755845 902.1758838609296) rotate(0 31.439979553222656 12.5)"><text x="31.439979553222656" y="0" font-family="Segoe UI Emoji" font-size="20px" fill="#1971c2" text-anchor="middle" style="white-space: pre;" direction="ltr" dominant-baseline="text-before-edge">PGLite</text></g><g stroke-linecap="round" transform="translate(1177.7307987711213 413.6322748242187) rotate(0 42.66796875 24.5)"><path d="M24.05 2.59 C30.89 0.28, 41.21 -0.58, 49.37 0.19 C57.53 0.96, 66.99 3.64, 73.01 7.22 C79.03 10.81, 84.35 16.98, 85.51 21.69 C86.67 26.41, 83.92 31.48, 79.97 35.52 C76.02 39.57, 69.26 43.86, 61.83 45.97 C54.4 48.08, 43.5 48.81, 35.39 48.18 C27.27 47.55, 18.86 45.62, 13.15 42.19 C7.44 38.76, 2.41 32.3, 1.13 27.61 C-0.15 22.93, 0.77 18.63, 5.48 14.1 C10.2 9.56, 24.37 2.6, 29.41 0.38 C34.45 -1.84, 35.58 0.15, 35.72 0.77 M56.55 2.4 C64.32 3.47, 71.38 6.46, 76.11 9.85 C80.85 13.24, 84.59 17.9, 84.95 22.74 C85.32 27.58, 83.07 34.7, 78.3 38.87 C73.53 43.05, 64.19 46.51, 56.32 47.77 C48.45 49.03, 38.95 48.09, 31.09 46.43 C23.23 44.78, 14.54 41.64, 9.15 37.83 C3.76 34.02, -0.95 27.92, -1.25 23.57 C-1.56 19.22, 2.05 15.42, 7.31 11.74 C12.57 8.06, 22.2 3.11, 30.31 1.5 C38.42 -0.11, 51.91 2.18, 55.97 2.08 C60.04 1.97, 54.82 0.88, 54.68 0.87" stroke="#2f9e44" stroke-width="2" fill="none"></path></g><g transform="translate(1196.4379627320939 425.8081586851483) rotate(0 23.78999474644661 12.5)"><text x="23.78999474644661" y="0" font-family="Segoe UI Emoji" font-size="20px" fill="#2f9e44" text-anchor="middle" style="white-space: pre;" direction="ltr" dominant-baseline="text-before-edge">Node</text></g><g stroke-linecap="round" transform="translate(1081.9456425211213 414.8510248242187) rotate(0 42.66796875 24.5)"><path d="M59.53 2.78 C67.26 4.34, 74.85 7.75, 79.21 11.51 C83.58 15.27, 86.47 20.64, 85.73 25.36 C85 30.08, 80.42 36.04, 74.79 39.82 C69.17 43.61, 60.04 46.81, 51.97 48.08 C43.89 49.34, 33.78 49.13, 26.34 47.43 C18.9 45.73, 11.73 42.05, 7.34 37.88 C2.95 33.71, -0.46 27.24, -0.01 22.41 C0.44 17.59, 4.68 12.57, 10.05 8.93 C15.43 5.28, 22.96 1.59, 32.22 0.54 C41.48 -0.5, 59.49 1.71, 65.6 2.65 C71.72 3.58, 69.51 5.81, 68.89 6.15 M23.81 2.28 C30.67 -0.11, 41.1 -1.06, 49.23 -0.05 C57.36 0.96, 66.64 4.99, 72.58 8.34 C78.52 11.69, 83.36 15.49, 84.88 20.04 C86.4 24.6, 85.42 31.52, 81.7 35.68 C77.97 39.85, 70.26 42.84, 62.53 45.03 C54.8 47.22, 43.84 49.25, 35.31 48.83 C26.79 48.41, 17.14 46.12, 11.36 42.51 C5.58 38.91, 1.54 31.8, 0.64 27.18 C-0.25 22.57, 2.2 18.69, 6 14.8 C9.79 10.91, 20.48 5.61, 23.43 3.83 C26.38 2.05, 23.34 3.87, 23.7 4.12" stroke="#2f9e44" stroke-width="2" fill="none"></path></g><g transform="translate(1102.2828204546147 427.0269086851483) rotate(0 22.15998077392578 12.5)"><text x="22.15998077392578" y="0" font-family="Segoe UI Emoji" font-size="20px" fill="#2f9e44" text-anchor="middle" style="white-space: pre;" direction="ltr" dominant-baseline="text-before-edge">Java</text></g><g stroke-linecap="round" transform="translate(1083.9026737711213 470.7611810742187) rotate(0 42.66796875 24.5)"><path d="M31.42 0.94 C38.93 -0.66, 49.27 0.1, 57.12 1.7 C64.97 3.31, 73.97 6.61, 78.51 10.57 C83.06 14.52, 84.8 20.52, 84.42 25.43 C84.03 30.34, 81.4 36.24, 76.2 40.04 C71 43.83, 61.45 47.04, 53.23 48.19 C45.01 49.33, 34.46 48.65, 26.89 46.92 C19.32 45.2, 12.4 41.65, 7.82 37.83 C3.24 34.01, -0.83 28.84, -0.58 24.01 C-0.34 19.17, 2.77 12.8, 9.29 8.81 C15.81 4.81, 32.67 1.4, 38.54 0.04 C44.41 -1.31, 44.39 0.35, 44.5 0.69 M54.88 0.87 C62.55 1.47, 69.8 4.64, 74.92 8.15 C80.03 11.66, 84.84 16.97, 85.59 21.94 C86.35 26.9, 83.97 33.87, 79.43 37.96 C74.89 42.05, 66.63 44.72, 58.36 46.49 C50.09 48.25, 38.15 49.63, 29.82 48.52 C21.49 47.42, 13.35 43.74, 8.4 39.85 C3.46 35.96, 0.39 29.9, 0.15 25.19 C-0.08 20.49, 2.26 15.39, 6.98 11.62 C11.71 7.86, 20.89 4.64, 28.48 2.62 C36.08 0.6, 48.25 -0.12, 52.57 -0.49 C56.89 -0.87, 54.22 -0.5, 54.4 0.36" stroke="#2f9e44" stroke-width="2" fill="none"></path></g><g transform="translate(1106.3898378524952 482.9370649351483) rotate(0 20.009994626045227 12.5)"><text x="20.009994626045227" y="0" font-family="Segoe UI Emoji" font-size="20px" fill="#2f9e44" text-anchor="middle" style="white-space: pre;" direction="ltr" dominant-baseline="text-before-edge">.Net</text></g><g stroke-linecap="round" transform="translate(1087.7347050211213 526.7924310742187) rotate(0 42.66796875 24.5)"><path d="M52.17 0.19 C60.11 0.74, 69.82 4.33, 75.24 7.83 C80.65 11.33, 83.98 16.19, 84.66 21.18 C85.35 26.17, 83.37 33.32, 79.35 37.77 C75.33 42.22, 68.2 46.06, 60.53 47.88 C52.85 49.69, 41.52 49.85, 33.3 48.69 C25.09 47.54, 16.64 44.53, 11.22 40.95 C5.81 37.37, 1.74 32.07, 0.84 27.22 C-0.07 22.37, 1.64 16.21, 5.77 11.87 C9.9 7.52, 16.64 2.88, 25.62 1.16 C34.6 -0.57, 52.96 1.11, 59.65 1.53 C66.34 1.95, 66.17 3.29, 65.77 3.68 M33.91 0.8 C41.3 -0.41, 51.3 -0.1, 58.74 1.84 C66.18 3.78, 74 8.36, 78.55 12.42 C83.1 16.49, 86.58 21.65, 86.01 26.24 C85.45 30.82, 80.93 36.24, 75.18 39.92 C69.42 43.6, 59.69 47.12, 51.49 48.32 C43.29 49.53, 33.54 49.17, 25.96 47.14 C18.38 45.12, 10.46 40.25, 6.03 36.2 C1.59 32.15, -1.49 27.61, -0.67 22.86 C0.16 18.1, 5.49 11.34, 10.98 7.69 C16.47 4.04, 28.39 2.09, 32.26 0.95 C36.13 -0.18, 33.98 0.51, 34.2 0.9" stroke="#2f9e44" stroke-width="2" fill="none"></path></g><g transform="translate(1106.2018818769627 538.9683149351483) rotate(0 24.02998185157776 12.5)"><text x="24.02998185157776" y="0" font-family="Segoe UI Emoji" font-size="20px" fill="#2f9e44" text-anchor="middle" style="white-space: pre;" direction="ltr" dominant-baseline="text-before-edge">Rust</text></g><g stroke-linecap="round" transform="translate(1179.2698612711213 470.6205560742187) rotate(0 42.66796875 24.5)"><path d="M25.94 1.88 C33.03 -0.27, 44.7 -1.05, 52.97 0.15 C61.23 1.36, 70.32 5.51, 75.53 9.12 C80.75 12.72, 83.5 17.27, 84.27 21.79 C85.03 26.32, 84.33 32.21, 80.13 36.27 C75.92 40.33, 66.88 44.17, 59.04 46.15 C51.2 48.12, 41.14 49.17, 33.1 48.1 C25.06 47.04, 16.43 43.23, 10.78 39.75 C5.13 36.28, 0.01 31.78, -0.82 27.24 C-1.64 22.7, 0.95 16.72, 5.85 12.51 C10.75 8.3, 23.94 3.92, 28.58 1.98 C33.22 0.04, 33.35 0.46, 33.67 0.89 M31.87 2.43 C39.68 0.89, 49.96 0.49, 57.62 1.87 C65.28 3.25, 73.12 6.8, 77.82 10.71 C82.52 14.61, 85.92 20.66, 85.82 25.31 C85.73 29.95, 82.43 34.75, 77.25 38.57 C72.06 42.39, 62.81 46.57, 54.72 48.23 C46.63 49.89, 36.34 50.3, 28.71 48.54 C21.09 46.78, 13.8 41.54, 8.98 37.69 C4.16 33.83, -0.3 29.89, -0.19 25.39 C-0.09 20.9, 4.43 14.52, 9.6 10.71 C14.78 6.9, 27.3 3.85, 30.86 2.52 C34.41 1.2, 30.6 2.86, 30.93 2.76" stroke="#2f9e44" stroke-width="2" fill="none"></path></g><g transform="translate(1197.3370349321538 482.7964399351483) rotate(0 24.42998504638672 12.5)"><text x="24.42998504638672" y="0" font-family="Segoe UI Emoji" font-size="20px" fill="#2f9e44" text-anchor="middle" style="white-space: pre;" direction="ltr" dominant-baseline="text-before-edge">Deno</text></g><g stroke-linecap="round" transform="translate(1181.9026737711213 525.9760248242187) rotate(0 42.66796875 24.5)"><path d="M33.29 0.94 C41 -0.13, 52.65 0.85, 60.42 2.74 C68.19 4.62, 75.9 8.22, 79.91 12.25 C83.93 16.27, 85.48 22.25, 84.53 26.89 C83.57 31.53, 79.79 36.43, 74.2 40.07 C68.61 43.71, 59.26 47.45, 50.98 48.74 C42.7 50.02, 32.21 49.8, 24.54 47.78 C16.87 45.76, 9.05 41.02, 4.96 36.59 C0.86 32.17, -0.9 25.94, -0.02 21.23 C0.86 16.51, 4.32 11.67, 10.26 8.32 C16.2 4.97, 30.89 2.43, 35.61 1.15 C40.33 -0.13, 38.48 0.46, 38.58 0.65 M34.94 1.55 C42.84 0.18, 54.61 -0.38, 62.24 1.68 C69.86 3.73, 76.7 9.42, 80.68 13.89 C84.66 18.35, 87.63 24.05, 86.13 28.48 C84.62 32.9, 77.96 37.31, 71.65 40.44 C65.34 43.57, 56.41 46.49, 48.27 47.26 C40.14 48.02, 29.94 46.72, 22.85 45.04 C15.76 43.35, 9.28 40.98, 5.75 37.16 C2.22 33.33, 0.62 26.87, 1.67 22.08 C2.71 17.29, 6.48 11.95, 12.01 8.43 C17.55 4.91, 30.72 2.13, 34.87 0.96 C39.02 -0.21, 36.56 1.06, 36.91 1.43" stroke="#2f9e44" stroke-width="2" fill="none"></path></g><g transform="translate(1206.0498492632084 538.1519086851483) rotate(0 18.34998321533203 12.5)"><text x="18.34998321533203" y="0" font-family="Segoe UI Emoji" font-size="20px" fill="#2f9e44" text-anchor="middle" style="white-space: pre;" direction="ltr" dominant-baseline="text-before-edge">Bun</text></g><g stroke-linecap="round" transform="translate(1230 30) rotate(0 180 130)"><path d="M93.7 14.57 C107.59 6.7, 128.37 3.51, 146.85 1.21 C165.33 -1.1, 185.99 -1.19, 204.57 0.73 C223.16 2.66, 241.7 6.85, 258.37 12.78 C275.03 18.71, 291.08 27.14, 304.57 36.31 C318.06 45.48, 330.69 56.09, 339.31 67.82 C347.93 79.54, 353.24 93.38, 356.29 106.64 C359.34 119.9, 360.1 133.92, 357.59 147.37 C355.09 160.81, 349.24 175.37, 341.23 187.3 C333.23 199.23, 322.35 209.25, 309.57 218.94 C296.8 228.63, 280.85 239.09, 264.57 245.45 C248.3 251.8, 230.02 254.89, 211.91 257.05 C193.8 259.21, 174.31 260.12, 155.92 258.4 C137.53 256.69, 118.34 252.64, 101.54 246.77 C84.74 240.89, 68.33 232.23, 55.14 223.15 C41.95 214.07, 31.04 203.89, 22.41 192.27 C13.79 180.65, 6.71 166.75, 3.37 153.42 C0.02 140.09, 0.03 125.58, 2.37 112.28 C4.7 98.98, 9.38 85.49, 17.39 73.61 C25.4 61.72, 34.73 51.6, 50.41 40.97 C66.1 30.33, 98.49 15.39, 111.5 9.78 C124.52 4.16, 127.45 5.19, 128.52 7.25 M106.32 10 C121.42 2.78, 142.94 0.83, 161.58 -0.31 C180.21 -1.45, 199.76 0.2, 218.12 3.17 C236.48 6.13, 255.78 10.9, 271.72 17.48 C287.65 24.06, 301.72 32.58, 313.73 42.63 C325.73 52.68, 336.08 65.54, 343.72 77.8 C351.36 90.07, 357.72 103.09, 359.57 116.23 C361.42 129.36, 358.84 143.46, 354.85 156.6 C350.86 169.75, 344.84 183.23, 335.62 195.11 C326.41 206.98, 313.44 218.89, 299.57 227.87 C285.7 236.85, 269.22 243.82, 252.41 248.98 C235.6 254.14, 216.94 257.66, 198.72 258.84 C180.5 260.02, 161.24 258.77, 143.08 256.06 C124.92 253.35, 105.82 249.37, 89.76 242.59 C73.71 235.81, 58.98 225.26, 46.76 215.37 C34.55 205.48, 24.29 195.25, 16.48 183.25 C8.68 171.26, 1.75 157.11, -0.06 143.41 C-1.88 129.71, 1.6 114.34, 5.6 101.06 C9.6 87.79, 14.77 74.92, 23.92 63.75 C33.06 52.59, 46.48 43.05, 60.47 34.06 C74.45 25.07, 99.9 13.21, 107.81 9.81 C115.72 6.41, 106.57 11.5, 107.94 13.67" stroke="#f08c00" stroke-width="2" fill="none"></path></g><g transform="translate(1389.510795560738 147.57611844574882) rotate(0 20.709983825683594 12.5)"><text x="20.709983825683594" y="0" font-family="Segoe UI Emoji" font-size="20px" fill="#f08c00" text-anchor="middle" style="white-space: pre;" direction="ltr" dominant-baseline="text-before-edge">Web</text></g><g stroke-linecap="round" transform="translate(1430 210) rotate(0 38.958984375 28.626953125)"><path d="M43.18 0.28 C50.41 0.54, 60.41 3.48, 65.96 7.18 C71.52 10.88, 75 16.96, 76.49 22.46 C77.98 27.95, 78.1 34.82, 74.88 40.14 C71.67 45.46, 63.93 51.66, 57.18 54.39 C50.44 57.12, 42 57.35, 34.41 56.54 C26.82 55.72, 17.36 53.13, 11.65 49.51 C5.94 45.89, 1.49 40.41, 0.14 34.8 C-1.21 29.19, 0.28 20.93, 3.56 15.85 C6.84 10.78, 12.73 6.92, 19.83 4.36 C26.93 1.81, 41.21 0.95, 46.15 0.53 C51.1 0.11, 49.39 1.42, 49.53 1.83 M37.05 1.34 C44.31 0.75, 53.51 2.03, 59.6 4.57 C65.69 7.1, 70.77 11.2, 73.59 16.55 C76.41 21.9, 77.96 31.27, 76.54 36.67 C75.12 42.07, 70.83 45.59, 65.07 48.95 C59.31 52.32, 49.8 56.39, 41.99 56.86 C34.18 57.32, 24.5 54.53, 18.2 51.75 C11.91 48.96, 7 45.21, 4.21 40.15 C1.42 35.09, 0.02 27.1, 1.45 21.4 C2.87 15.7, 6.86 9.51, 12.75 5.95 C18.64 2.39, 33.03 1.15, 36.79 0.02 C40.55 -1.1, 35.43 -1.03, 35.31 -0.79" stroke="#f08c00" stroke-width="2" fill="none"></path></g><g transform="translate(1452.640828821474 225.88464044560305) rotate(0 16.269993513822556 12.5)"><text x="16.269993513822556" y="0" font-family="Segoe UI Emoji" font-size="20px" fill="#f08c00" text-anchor="middle" style="white-space: pre;" direction="ltr" dominant-baseline="text-before-edge">Vue</text></g><g stroke-linecap="round" transform="translate(1290 210) rotate(0 54.033203125 24.5)"><path d="M78.34 3.62 C86.83 5.43, 96.03 9.17, 100.84 12.79 C105.65 16.42, 107.85 21.15, 107.19 25.36 C106.52 29.57, 102.33 34.33, 96.85 38.08 C91.37 41.83, 83.09 46.13, 74.29 47.87 C65.48 49.61, 53.52 49.51, 44.01 48.54 C34.51 47.56, 24.43 45.12, 17.26 42.01 C10.1 38.9, 3.49 34.03, 1.02 29.88 C-1.46 25.74, -0.97 21.4, 2.4 17.16 C5.77 12.92, 13.42 7.14, 21.25 4.45 C29.08 1.75, 39.13 1.05, 49.39 0.98 C59.66 0.91, 76.72 3.14, 82.85 4.03 C88.99 4.93, 86.68 6.14, 86.19 6.34 M66.85 1.52 C76.02 2.54, 84.44 5.67, 90.89 8.63 C97.33 11.6, 102.98 15.33, 105.5 19.3 C108.02 23.26, 109.06 28.14, 106.01 32.43 C102.96 36.72, 95.07 42.49, 87.19 45.02 C79.31 47.56, 68.69 47.62, 58.74 47.65 C48.78 47.68, 36.07 47.06, 27.47 45.22 C18.87 43.39, 11.79 40.49, 7.12 36.64 C2.44 32.79, -1.16 26.83, -0.6 22.12 C-0.05 17.41, 4.64 11.57, 10.47 8.35 C16.3 5.13, 25.01 4.1, 34.39 2.79 C43.78 1.48, 61.77 0.99, 66.78 0.49 C71.78 -0.02, 64.67 -0.42, 64.43 -0.24" stroke="#f08c00" stroke-width="2" fill="none"></path></g><g transform="translate(1314.5359824276686 222.17588386092956) rotate(0 29.289976358413696 12.5)"><text x="29.289976358413696" y="0" font-family="Segoe UI Emoji" font-size="20px" fill="#f08c00" text-anchor="middle" style="white-space: pre;" direction="ltr" dominant-baseline="text-before-edge">React</text></g><g stroke-linecap="round" transform="translate(1410 190) rotate(0 60 160)"><path d="M70.94 2.53 C77.39 3.46, 84.57 13.93, 90.55 23.37 C96.52 32.82, 102.43 45.3, 106.79 59.22 C111.15 73.15, 114.35 89.94, 116.7 106.92 C119.06 123.9, 120.99 142.76, 120.91 161.09 C120.83 179.42, 118.86 199.75, 116.21 216.9 C113.56 234.06, 109.43 250.27, 104.99 264.03 C100.56 277.78, 95.51 290.57, 89.62 299.45 C83.73 308.33, 76.58 314.3, 69.65 317.31 C62.72 320.32, 54.61 320.89, 48.05 317.5 C41.48 314.12, 35.88 306.26, 30.26 297.01 C24.65 287.76, 18.72 276.07, 14.36 262.02 C10 247.97, 6.64 229.91, 4.13 212.71 C1.61 195.51, -0.82 176.93, -0.73 158.82 C-0.65 140.71, 2.08 121.3, 4.64 104.06 C7.2 86.82, 10.3 69.17, 14.63 55.37 C18.95 41.58, 24.79 30.3, 30.6 21.27 C36.4 12.24, 42.19 4.12, 49.45 1.2 C56.71 -1.72, 69.73 2.38, 74.14 3.76 C78.56 5.14, 76.02 6.75, 75.93 9.48 M71.6 4.79 C78.13 5.8, 86.15 15.2, 91.91 24.61 C97.67 34.02, 102.16 46.99, 106.17 61.25 C110.18 75.52, 113.49 92.51, 115.97 110.2 C118.45 127.89, 120.95 149.07, 121.07 167.39 C121.18 185.7, 119.49 203.61, 116.66 220.09 C113.82 236.57, 108.86 252.53, 104.04 266.27 C99.22 280.01, 93.75 293.68, 87.73 302.52 C81.7 311.36, 74.8 317.13, 67.89 319.33 C60.98 321.53, 52.99 319.93, 46.27 315.72 C39.54 311.5, 33.06 303.48, 27.54 294.05 C22.02 284.62, 17.29 273.22, 13.14 259.14 C8.99 245.05, 4.88 227.04, 2.63 209.54 C0.37 192.04, -0.66 172.4, -0.41 154.14 C-0.15 135.88, 1.42 116.74, 4.18 100 C6.94 83.26, 11.74 67.34, 16.16 53.71 C20.57 40.07, 24.43 27.12, 30.64 18.18 C36.85 9.24, 46.39 2.45, 53.4 0.09 C60.42 -2.28, 69.41 2.8, 72.73 3.98 C76.06 5.16, 73.8 4.6, 73.35 7.17" stroke="#ffd43b" stroke-width="2" fill="none"></path></g><g transform="translate(1448.6436080824203 337.3629150101524) rotate(0 21.42998504638672 12.5)"><text x="21.42998504638672" y="0" font-family="Segoe UI Emoji" font-size="20px" fill="#ffd43b" text-anchor="middle" style="white-space: pre;" direction="ltr" dominant-baseline="text-before-edge">Nuxt</text></g><g stroke-linecap="round" transform="translate(270 30) rotate(0 44.35546875 25.44921875)"><path d="M26.16 1.92 C33.47 -0.43, 44.78 -0.48, 53.33 0.51 C61.87 1.5, 71.5 4.28, 77.43 7.86 C83.35 11.44, 87.94 16.9, 88.89 22.01 C89.83 27.11, 87.5 34.06, 83.09 38.47 C78.68 42.88, 70.46 46.51, 62.43 48.47 C54.4 50.42, 43.39 51.19, 34.91 50.21 C26.44 49.23, 17.41 46.21, 11.6 42.6 C5.8 38.99, 1.12 33.32, 0.06 28.53 C-0.99 23.74, -0.33 18.48, 5.27 13.86 C10.87 9.24, 27.43 3.15, 33.66 0.82 C39.9 -1.51, 42.38 -0.66, 42.7 -0.12 M57.41 0.21 C65.36 1.34, 74.27 5.79, 79.36 9.82 C84.44 13.84, 87.49 19.19, 87.93 24.36 C88.37 29.54, 86.93 36.73, 82 40.86 C77.07 45, 66.74 47.93, 58.37 49.18 C49.99 50.43, 39.94 49.96, 31.73 48.35 C23.52 46.73, 14.23 43.38, 9.11 39.51 C3.99 35.64, 1.24 29.85, 1.01 25.12 C0.78 20.4, 2.86 15.16, 7.75 11.17 C12.64 7.18, 21.92 2.94, 30.37 1.16 C38.81 -0.62, 54.03 0.25, 58.41 0.5 C62.79 0.75, 56.82 2.39, 56.66 2.67" stroke="#e03131" stroke-width="2" fill="none"></path></g><g transform="translate(288.7714376816475 42.95390359597519) rotate(0 25.71997833251953 12.5)"><text x="25.71997833251953" y="0" font-family="Segoe UI Emoji" font-size="20px" fill="#e03131" text-anchor="middle" style="white-space: pre;" direction="ltr" dominant-baseline="text-before-edge">Flash</text></g><g stroke-linecap="round" transform="translate(390 30) rotate(0 31.923828125 25.44921875)"><path d="M20.85 1.25 C26.8 -0.83, 37.05 -0.48, 43.59 1.48 C50.13 3.44, 56.66 8.2, 60.08 13.01 C63.5 17.82, 65.52 25.1, 64.1 30.34 C62.67 35.58, 56.96 41.08, 51.53 44.47 C46.1 47.86, 38.2 50.6, 31.52 50.7 C24.83 50.79, 16.55 48.56, 11.42 45.02 C6.28 41.48, 1.96 35, 0.7 29.47 C-0.55 23.94, 0.33 16.74, 3.89 11.85 C7.45 6.97, 18.51 1.92, 22.05 0.16 C25.6 -1.6, 24.76 0.71, 25.15 1.32 M17.56 1.71 C23.37 -0.83, 33.42 -0.89, 39.84 0.76 C46.27 2.42, 51.98 7.22, 56.12 11.67 C60.26 16.12, 64.86 22.42, 64.68 27.44 C64.5 32.46, 59.99 37.96, 55.02 41.77 C50.05 45.57, 41.79 49.38, 34.85 50.28 C27.91 51.18, 18.92 49.96, 13.38 47.17 C7.84 44.37, 3.53 38.78, 1.63 33.48 C-0.27 28.19, -0.9 20.69, 1.98 15.4 C4.85 10.11, 16.39 4.01, 18.89 1.74 C21.39 -0.52, 17.07 1.18, 16.99 1.79" stroke="#e03131" stroke-width="2" fill="none"></path></g><g transform="translate(405.30027964879423 42.95390359597516) rotate(0 16.549993127584457 12.5)"><text x="16.549993127584457" y="0" font-family="Segoe UI Emoji" font-size="20px" fill="#e03131" text-anchor="middle" style="white-space: pre;" direction="ltr" dominant-baseline="text-before-edge">QT</text></g><g stroke-linecap="round" transform="translate(530 30) rotate(0 62.509765625 24.5)"><path d="M45.75 1.47 C55.82 0.1, 70.63 -0.08, 81.44 1.22 C92.25 2.53, 103.55 5.96, 110.59 9.29 C117.63 12.63, 122.14 16.99, 123.69 21.23 C125.25 25.48, 124.54 30.61, 119.93 34.76 C115.32 38.91, 105.66 43.66, 96.02 46.14 C86.39 48.62, 73.31 49.72, 62.11 49.64 C50.91 49.57, 38.13 48.08, 28.82 45.7 C19.5 43.32, 11.04 39.48, 6.21 35.35 C1.38 31.23, -1.59 25.32, -0.16 20.96 C1.28 16.61, 6.71 12.64, 14.84 9.24 C22.97 5.84, 42.36 1.87, 48.63 0.58 C54.9 -0.72, 52.04 1.08, 52.49 1.47 M32.54 2.73 C41.43 0.37, 56.2 -1.67, 67.42 -1.39 C78.63 -1.1, 91.07 1.38, 99.85 4.45 C108.63 7.51, 116.07 12.97, 120.1 17 C124.13 21.03, 126.32 24.38, 124.03 28.66 C121.74 32.93, 114.61 39.42, 106.35 42.67 C98.1 45.92, 85.39 47.37, 74.48 48.16 C63.58 48.95, 51.21 48.91, 40.94 47.41 C30.67 45.92, 19.58 42.64, 12.86 39.18 C6.13 35.71, 1.47 31.3, 0.58 26.63 C-0.31 21.97, 2.27 15.25, 7.5 11.17 C12.73 7.1, 27.74 3.29, 31.97 2.19 C36.19 1.09, 31.96 4.32, 32.85 4.57" stroke="#e03131" stroke-width="2" fill="none"></path></g><g transform="translate(555.6287166735831 42.17588386092959) rotate(0 36.679969787597656 12.5)"><text x="36.679969787597656" y="0" font-family="Segoe UI Emoji" font-size="20px" fill="#e03131" text-anchor="middle" style="white-space: pre;" direction="ltr" dominant-baseline="text-before-edge">Android</text></g><g stroke-linecap="round" transform="translate(670 30) rotate(0 62.509765625 24.5)"><path d="M57.63 -0.17 C68.23 -0.95, 83.49 0, 93.42 2.3 C103.35 4.61, 112.04 9.55, 117.23 13.66 C122.41 17.77, 125.21 22.66, 124.5 26.96 C123.79 31.26, 119.64 35.89, 112.95 39.45 C106.27 43.01, 94.96 46.99, 84.4 48.33 C73.83 49.67, 60.57 48.76, 49.56 47.49 C38.55 46.22, 26.2 43.76, 18.31 40.71 C10.43 37.66, 4.53 33.42, 2.24 29.17 C-0.04 24.91, 0.86 19.31, 4.62 15.17 C8.39 11.03, 14.63 6.76, 24.84 4.33 C35.05 1.9, 57.76 1.25, 65.88 0.59 C74 -0.08, 73.38 -0.01, 73.56 0.34 M73.59 0.08 C84.18 0.52, 95.04 4.06, 103.03 7.02 C111.02 9.98, 118.61 13.71, 121.56 17.84 C124.5 21.97, 124 27.3, 120.71 31.79 C117.42 36.29, 110.43 41.86, 101.81 44.82 C93.18 47.79, 79.81 49.43, 68.96 49.57 C58.11 49.71, 46.89 47.94, 36.71 45.68 C26.53 43.41, 13.88 39.69, 7.88 35.99 C1.87 32.29, 0.46 27.49, 0.68 23.47 C0.9 19.45, 2.8 15.53, 9.18 11.89 C15.57 8.25, 28.63 3.77, 39.01 1.63 C49.39 -0.51, 66.14 -0.88, 71.48 -0.98 C76.82 -1.07, 70.9 0.39, 71.06 1.06" stroke="#e03131" stroke-width="2" fill="none"></path></g><g transform="translate(707.1887066027823 42.17588386092959) rotate(0 25.119979858398438 12.5)"><text x="25.119979858398438" y="0" font-family="Segoe UI Emoji" font-size="20px" fill="#e03131" text-anchor="middle" style="white-space: pre;" direction="ltr" dominant-baseline="text-before-edge">Apple</text></g><g stroke-linecap="round" transform="translate(130 30) rotate(0 58.025390625 24.5)"><path d="M48.6 -0.27 C58.32 -1.43, 72.25 -0.37, 81.83 1.39 C91.41 3.14, 100.3 6.43, 106.08 10.29 C111.86 14.14, 116.3 19.94, 116.51 24.53 C116.72 29.11, 113.11 34.03, 107.33 37.77 C101.55 41.52, 91.46 45.09, 81.84 47 C72.23 48.92, 59.74 49.93, 49.63 49.25 C39.53 48.57, 29.01 45.9, 21.2 42.93 C13.4 39.97, 5.91 35.77, 2.79 31.46 C-0.33 27.15, -0.47 21.47, 2.47 17.08 C5.41 12.69, 10.79 7.85, 20.42 5.12 C30.05 2.4, 52.09 1.37, 60.26 0.73 C68.44 0.1, 69.57 0.98, 69.48 1.31 M47.98 1.8 C57.94 1.03, 71.77 0.73, 81.5 2.13 C91.24 3.53, 100.76 6.49, 106.41 10.17 C112.06 13.86, 115.47 19.66, 115.43 24.27 C115.39 28.88, 111.38 34.32, 106.2 37.85 C101.01 41.38, 93.5 43.39, 84.32 45.44 C75.14 47.48, 61.63 50.67, 51.14 50.11 C40.65 49.55, 29.48 45.09, 21.37 42.08 C13.25 39.07, 5.57 35.85, 2.46 32.05 C-0.66 28.25, 0.1 23.69, 2.67 19.29 C5.24 14.89, 10.23 8.57, 17.89 5.65 C25.55 2.72, 43.42 2.57, 48.63 1.76 C53.85 0.96, 49.06 0.85, 49.17 0.82" stroke="#e03131" stroke-width="2" fill="none"></path></g><g transform="translate(152.7952615647971 42.17588386092959) rotate(0 35.19998186826706 12.5)"><text x="35.19998186826706" y="0" font-family="Segoe UI Emoji" font-size="20px" fill="#e03131" text-anchor="middle" style="white-space: pre;" direction="ltr" dominant-baseline="text-before-edge">Flutter</text></g><g stroke-linecap="round" transform="translate(1063 650) rotate(0 26.3828125 25.916015625)"><path d="M28.05 -0.08 C33.4 0.15, 41 4.58, 45.18 8.58 C49.37 12.59, 52.64 18.62, 53.16 23.96 C53.67 29.3, 51.79 36.05, 48.27 40.62 C44.74 45.2, 37.65 49.96, 32 51.41 C26.34 52.87, 19.35 51.77, 14.35 49.34 C9.36 46.9, 4.28 41.8, 2.04 36.81 C-0.2 31.83, -0.52 24.85, 0.9 19.41 C2.33 13.98, 4.86 7.2, 10.59 4.19 C16.32 1.18, 29.99 1.36, 35.26 1.37 C40.53 1.38, 42.41 3.74, 42.21 4.25 M30.08 -0.19 C35.67 0.52, 44.3 5.52, 48.13 10.04 C51.96 14.55, 53.29 21.31, 53.08 26.91 C52.86 32.51, 50.51 39.67, 46.85 43.64 C43.2 47.61, 36.69 49.81, 31.13 50.74 C25.58 51.66, 18.5 52.07, 13.53 49.19 C8.56 46.32, 3.2 39.11, 1.29 33.49 C-0.62 27.87, 0.19 20.65, 2.07 15.48 C3.94 10.31, 7.53 5.06, 12.55 2.46 C17.56 -0.13, 28.88 -0.02, 32.18 -0.08 C35.48 -0.15, 32.73 1.61, 32.35 2.06" stroke="#2f9e44" stroke-width="2" fill="none"></path></g><g transform="translate(1077.667349315883 663.590625235226) rotate(0 11.55999755859375 12.5)"><text x="11.55999755859375" y="0" font-family="Segoe UI Emoji" font-size="20px" fill="#2f9e44" text-anchor="middle" style="white-space: pre;" direction="ltr" dominant-baseline="text-before-edge">h3</text></g><g stroke-linecap="round" transform="translate(890 430) rotate(0 61.57421875 25.296875)"><path d="M90.36 3.18 C100.06 5.1, 110.71 9.43, 116.03 13.29 C121.34 17.15, 122.94 21.91, 122.26 26.34 C121.57 30.78, 118.34 36.11, 111.93 39.91 C105.52 43.72, 94.4 47.38, 83.79 49.16 C73.18 50.94, 59.09 51.74, 48.28 50.61 C37.46 49.48, 26.65 45.69, 18.9 42.39 C11.15 39.09, 4.14 35.03, 1.77 30.79 C-0.6 26.55, 0.89 21.07, 4.67 16.94 C8.44 12.8, 15.66 8.63, 24.43 5.98 C33.2 3.33, 45.55 1.42, 57.29 1.03 C69.03 0.65, 87.86 2.89, 94.89 3.66 C101.92 4.43, 99.94 5.18, 99.47 5.65 M33.52 3.29 C42.52 1.41, 57.11 0.81, 68.42 1.1 C79.73 1.4, 92.64 2.27, 101.36 5.06 C110.08 7.85, 117.68 13.2, 120.75 17.83 C123.81 22.45, 122.65 28.61, 119.75 32.82 C116.85 37.02, 111.47 39.9, 103.34 43.05 C95.21 46.21, 81.89 50.9, 70.98 51.74 C60.07 52.59, 47.8 50.38, 37.88 48.14 C27.96 45.91, 17.95 42.07, 11.48 38.31 C5.01 34.56, -0.47 29.85, -0.93 25.59 C-1.39 21.34, 2.67 16.65, 8.71 12.81 C14.75 8.97, 31.02 4.41, 35.31 2.56 C39.6 0.7, 33.96 1.43, 34.43 1.7" stroke="#2f9e44" stroke-width="2" fill="none"></path></g><g transform="translate(915.5447036006058 442.9092831446716) rotate(0 35.98996752500534 12.5)"><text x="35.98996752500534" y="0" font-family="Segoe UI Emoji" font-size="20px" fill="#2f9e44" text-anchor="middle" style="white-space: pre;" direction="ltr" dominant-baseline="text-before-edge">Fastify</text></g><g stroke-linecap="round" transform="translate(810 430) rotate(0 36.658203125 24.5)"><path d="M44.68 -0.42 C52.21 0.31, 61.41 4.89, 66.19 9.12 C70.96 13.36, 73.73 19.88, 73.31 25 C72.9 30.13, 68.93 35.85, 63.7 39.86 C58.47 43.88, 49.62 48.13, 41.95 49.11 C34.29 50.09, 24.39 48.51, 17.74 45.74 C11.08 42.97, 4.68 37.7, 2.05 32.51 C-0.59 27.32, -0.75 19.49, 1.94 14.62 C4.62 9.74, 10.89 5.41, 18.17 3.26 C25.45 1.1, 40.69 1.94, 45.62 1.69 C50.54 1.43, 47.95 1.43, 47.71 1.72 M52.11 3.39 C58.8 5.57, 65.89 11.5, 69.4 16.28 C72.91 21.05, 75.24 27.36, 73.15 32.05 C71.06 36.74, 63.71 41.85, 56.89 44.43 C50.06 47.01, 39.83 47.94, 32.2 47.54 C24.57 47.14, 16.51 45.69, 11.1 42 C5.69 38.32, 0.56 30.95, -0.27 25.43 C-1.11 19.91, 1.38 13.09, 6.11 8.89 C10.83 4.68, 20.34 1.08, 28.07 0.18 C35.79 -0.72, 48.24 2.81, 52.45 3.47 C56.65 4.14, 53.67 3.99, 53.29 4.16" stroke="#2f9e44" stroke-width="2" fill="none"></path></g><g transform="translate(829.9969565042181 442.1758838609296) rotate(0 16.73998260498047 12.5)"><text x="16.73998260498047" y="0" font-family="Segoe UI Emoji" font-size="20px" fill="#2f9e44" text-anchor="middle" style="white-space: pre;" direction="ltr" dominant-baseline="text-before-edge">koa</text></g><g stroke-linecap="round" transform="translate(990 290) rotate(0 50 70)"><path d="M63.51 3.31 C70.91 5.22, 78.8 12.4, 84.38 19.9 C89.96 27.39, 94.61 38.04, 96.99 48.28 C99.37 58.52, 99.72 70.65, 98.67 81.34 C97.63 92.04, 95.35 103.78, 90.73 112.44 C86.1 121.09, 77.97 128.58, 70.93 133.27 C63.89 137.96, 56.06 140.9, 48.48 140.6 C40.89 140.29, 32.03 136.78, 25.42 131.44 C18.81 126.1, 13.06 117.79, 8.82 108.57 C4.58 99.34, 0.96 86.96, -0.02 76.08 C-1 65.21, -0.15 53.46, 2.92 43.33 C5.98 33.21, 12.29 22.2, 18.37 15.33 C24.45 8.46, 31.28 3.91, 39.38 2.11 C47.48 0.3, 62.22 3.82, 66.98 4.49 C71.73 5.15, 68.47 5.23, 67.93 6.12 M68.52 5.62 C75.73 8.34, 84.7 15.7, 89.65 24.04 C94.6 32.37, 96.68 44.76, 98.23 55.66 C99.78 66.56, 100.99 78.83, 98.94 89.42 C96.89 100, 91.51 111.23, 85.93 119.18 C80.36 127.12, 72.56 133.58, 65.47 137.1 C58.38 140.62, 51.02 142.09, 43.4 140.31 C35.79 138.52, 26.06 132.82, 19.77 126.4 C13.49 119.98, 9.02 111.76, 5.7 101.77 C2.38 91.79, -0.16 77.44, -0.13 66.5 C-0.11 55.56, 2.25 45.46, 5.86 36.13 C9.46 26.8, 14.92 16.33, 21.52 10.53 C28.13 4.74, 37.3 2.39, 45.49 1.36 C53.68 0.33, 66.75 3.54, 70.64 4.35 C74.53 5.16, 69.55 5.1, 68.83 6.24" stroke="#ffd43b" stroke-width="2" fill="none"></path></g><g transform="translate(1014.5646819978015 347.50252531694167) rotate(0 25.579978942871094 12.5)"><text x="25.579978942871094" y="0" font-family="Segoe UI Emoji" font-size="20px" fill="#ffd43b" text-anchor="middle" style="white-space: pre;" direction="ltr" dominant-baseline="text-before-edge">Fresh</text></g><g stroke-linecap="round" transform="translate(690 290.00000000000006) rotate(0 60 109.99999999999997)"><path d="M62.66 0.09 C70.05 -0.71, 80.06 5.03, 86.92 11.08 C93.77 17.14, 98.74 25.92, 103.78 36.41 C108.82 46.9, 114.57 60.66, 117.14 74.01 C119.71 87.36, 119.7 102.64, 119.2 116.51 C118.7 130.38, 117.24 144.77, 114.14 157.21 C111.05 169.65, 106.47 181.83, 100.62 191.15 C94.77 200.47, 86.21 208.21, 79.04 213.13 C71.86 218.05, 65.22 221.26, 57.6 220.66 C49.97 220.06, 40.26 215.63, 33.28 209.52 C26.29 203.41, 20.57 194.63, 15.68 184 C10.79 173.37, 6.44 159.2, 3.92 145.74 C1.41 132.28, 0.09 117.18, 0.59 103.24 C1.08 89.3, 3.49 74.62, 6.88 62.09 C10.28 49.56, 15.53 37.54, 20.95 28.07 C26.38 18.61, 31.8 10, 39.43 5.3 C47.06 0.6, 61.9 0.25, 66.72 -0.13 C71.54 -0.51, 68.68 1.07, 68.36 3.03 M80.52 8.45 C87.46 11.89, 94.87 21.48, 100.84 30.93 C106.82 40.39, 113.4 52.53, 116.38 65.18 C119.36 77.84, 118.76 92.42, 118.71 106.86 C118.67 121.3, 118.85 138.69, 116.12 151.83 C113.39 164.97, 107.75 175.84, 102.32 185.7 C96.9 195.55, 90.29 205, 83.55 210.93 C76.8 216.87, 69.46 220.87, 61.84 221.31 C54.21 221.75, 45.16 219.09, 37.8 213.58 C30.43 208.07, 23.31 198.09, 17.66 188.27 C12.01 178.45, 6.94 167.23, 3.91 154.65 C0.87 142.08, -0.64 126.93, -0.53 112.8 C-0.43 98.67, 1.43 83.04, 4.53 69.87 C7.63 56.69, 12.98 44.02, 18.08 33.74 C23.18 23.45, 28.53 13.53, 35.13 8.16 C41.72 2.79, 49.64 1.64, 57.65 1.51 C65.66 1.37, 79.31 5.82, 83.17 7.33 C87.04 8.85, 81.62 8.89, 80.82 10.58" stroke="#ffd43b" stroke-width="2" fill="none"></path></g><g transform="translate(719.1936187635728 387.7182540694798) rotate(0 30.879974365234432 12.5)"><text x="30.879974365234375" y="0" font-family="Segoe UI Emoji" font-size="20px" fill="#ffd43b" text-anchor="middle" style="white-space: pre;" direction="ltr" dominant-baseline="text-before-edge">HonoX</text></g><g stroke-linecap="round" transform="translate(710 430) rotate(0 40.619140625 24.5)"><path d="M32.59 0.3 C39.76 -0.77, 50.15 0.18, 57.3 2.07 C64.44 3.95, 71.37 7.45, 75.46 11.6 C79.56 15.75, 82.81 22.12, 81.85 26.99 C80.88 31.87, 75.41 37.37, 69.68 40.85 C63.96 44.33, 55.33 46.81, 47.49 47.9 C39.65 48.98, 29.85 49.43, 22.63 47.36 C15.42 45.29, 7.9 39.77, 4.2 35.47 C0.51 31.18, -0.54 26.15, 0.49 21.59 C1.52 17.03, 3.92 11.66, 10.37 8.12 C16.82 4.57, 33.76 1.65, 39.21 0.31 C44.66 -1.03, 43.25 -0.13, 43.07 0.08 M59.8 1.55 C66.46 3.44, 72.91 8.82, 76.35 13.43 C79.78 18.04, 81.45 24.68, 80.4 29.2 C79.36 33.72, 75.52 37.36, 70.09 40.54 C64.66 43.71, 56.05 47.53, 47.83 48.25 C39.6 48.98, 28.04 46.79, 20.75 44.9 C13.47 43.02, 7.28 40.75, 4.1 36.93 C0.92 33.1, 0.21 26.71, 1.66 21.95 C3.12 17.19, 7.42 12.05, 12.82 8.34 C18.23 4.64, 26.5 0.76, 34.09 -0.29 C41.69 -1.34, 54.19 1.64, 58.39 2.03 C62.59 2.42, 59.63 1.62, 59.28 2.05" stroke="#2f9e44" stroke-width="2" fill="none"></path></g><g transform="translate(727.2070801438012 442.1758838609296) rotate(0 23.18999069929123 12.5)"><text x="23.18999069929123" y="0" font-family="Segoe UI Emoji" font-size="20px" fill="#2f9e44" text-anchor="middle" style="white-space: pre;" direction="ltr" dominant-baseline="text-before-edge">Hono</text></g><g stroke-linecap="round" transform="translate(30 290) rotate(0 13.819999694824219 270)"><path d="M12.13 0.54 C13.23 -6.15, 14.95 -1.21, 16.31 3.18 C17.66 7.58, 19.13 16.33, 20.27 26.93 C21.4 37.52, 22.34 50.9, 23.12 66.75 C23.9 82.59, 24.43 101.5, 24.96 122 C25.5 142.49, 25.72 166.54, 26.31 189.72 C26.9 212.9, 28.37 236.89, 28.5 261.05 C28.64 285.21, 27.47 310.97, 27.12 334.68 C26.78 358.39, 27.16 382.23, 26.43 403.33 C25.69 424.43, 23.66 444.36, 22.71 461.27 C21.77 478.18, 21.68 493.06, 20.76 504.78 C19.83 516.49, 18.49 525.84, 17.17 531.55 C15.85 537.27, 13.99 539.69, 12.83 539.06 C11.67 538.43, 11.38 535.06, 10.21 527.76 C9.05 520.46, 6.94 508.67, 5.84 495.26 C4.74 481.86, 4.38 465.57, 3.62 447.33 C2.85 429.09, 1.92 407.79, 1.25 385.81 C0.59 363.82, -0.03 339.47, -0.38 315.45 C-0.73 291.42, -1.11 265.7, -0.82 241.67 C-0.53 217.64, 0.72 193.86, 1.36 171.26 C1.99 148.66, 2.26 125.66, 2.96 106.08 C3.67 86.49, 4.75 68.18, 5.61 53.73 C6.46 39.27, 6.88 28.11, 8.09 19.33 C9.31 10.54, 11.96 3.25, 12.9 1.03 C13.83 -1.19, 13.62 1.72, 13.71 6.02 M12.09 4.63 C13.58 -3.25, 15.48 0.38, 16.41 3.12 C17.33 5.86, 16.81 12.14, 17.62 21.06 C18.43 29.98, 20.16 41.79, 21.27 56.64 C22.38 71.49, 23.3 90.54, 24.28 110.15 C25.26 129.77, 26.77 151.49, 27.15 174.35 C27.54 197.21, 26.5 223.05, 26.59 247.32 C26.67 271.58, 27.51 296.33, 27.65 319.93 C27.79 343.52, 28.01 367.17, 27.43 388.88 C26.84 410.59, 25.08 432.14, 24.14 450.18 C23.2 468.23, 22.76 484.04, 21.79 497.15 C20.81 510.27, 19.74 521.89, 18.3 528.87 C16.85 535.85, 14.44 538.8, 13.13 539.04 C11.81 539.27, 11.66 536.31, 10.39 530.26 C9.11 524.21, 6.67 514.56, 5.47 502.73 C4.26 490.89, 3.86 476.42, 3.16 459.25 C2.47 442.09, 1.85 421.45, 1.28 399.75 C0.72 378.06, 0.1 352.82, -0.22 329.08 C-0.54 305.35, -0.94 281.59, -0.62 257.35 C-0.3 233.1, 1.29 206.98, 1.72 183.6 C2.15 160.23, 1.59 137.04, 1.97 117.09 C2.35 97.14, 3.16 79.38, 4.01 63.92 C4.85 48.47, 5.74 34.41, 7.03 24.36 C8.31 14.3, 10.86 6.01, 11.73 3.58 C12.6 1.15, 12.42 5.49, 12.25 9.77" stroke="#9c36b5" stroke-width="2" fill="none"></path></g><g transform="translate(35.227784499793756 485.0811690796322) rotate(0 8.819999694824219 75)"><text x="8.819999694824219" y="0" font-family="Segoe UI Emoji" font-size="20px" fill="#9c36b5" text-anchor="middle" style="white-space: pre;" direction="ltr" dominant-baseline="text-before-edge">M</text><text x="8.819999694824219" y="25" font-family="Segoe UI Emoji" font-size="20px" fill="#9c36b5" text-anchor="middle" style="white-space: pre;" direction="ltr" dominant-baseline="text-before-edge">e</text><text x="8.819999694824219" y="50" font-family="Segoe UI Emoji" font-size="20px" fill="#9c36b5" text-anchor="middle" style="white-space: pre;" direction="ltr" dominant-baseline="text-before-edge">t</text><text x="8.819999694824219" y="75" font-family="Segoe UI Emoji" font-size="20px" fill="#9c36b5" text-anchor="middle" style="white-space: pre;" direction="ltr" dominant-baseline="text-before-edge">e</text><text x="8.819999694824219" y="100" font-family="Segoe UI Emoji" font-size="20px" fill="#9c36b5" text-anchor="middle" style="white-space: pre;" direction="ltr" dominant-baseline="text-before-edge">o</text><text x="8.819999694824219" y="125" font-family="Segoe UI Emoji" font-size="20px" fill="#9c36b5" text-anchor="middle" style="white-space: pre;" direction="ltr" dominant-baseline="text-before-edge">r</text></g><g stroke-linecap="round" transform="translate(70 290) rotate(0 13.819999694824219 270)"><path d="M13.79 0.84 C15.02 -2.97, 17.08 5.17, 18.3 11.84 C19.53 18.51, 20.09 28.13, 21.14 40.88 C22.19 53.62, 23.63 70.37, 24.6 88.33 C25.58 106.29, 26.37 126.96, 26.98 148.63 C27.6 170.29, 28.29 194.23, 28.29 218.31 C28.3 242.4, 27.09 268.82, 27 293.14 C26.9 317.47, 28.22 341.55, 27.73 364.25 C27.24 386.96, 24.98 409.58, 24.04 429.36 C23.1 449.13, 22.86 467.93, 22.07 482.91 C21.28 497.88, 20.27 509.95, 19.29 519.23 C18.32 528.52, 17.58 535.78, 16.2 538.62 C14.82 541.47, 12.49 540.03, 11.02 536.31 C9.55 532.6, 8.37 526.34, 7.38 516.35 C6.39 506.37, 6.02 492.23, 5.06 476.4 C4.1 460.56, 2.28 441.43, 1.64 421.36 C1.01 401.3, 1.48 378.83, 1.24 356 C1 333.17, 0.44 308.67, 0.19 284.38 C-0.06 260.1, -0.52 233.92, -0.24 210.3 C0.05 186.69, 1.2 164.08, 1.89 142.68 C2.57 121.28, 3.16 99.47, 3.86 81.91 C4.56 64.35, 4.92 49.38, 6.08 37.32 C7.23 25.26, 9.32 15.57, 10.76 9.55 C12.2 3.52, 13.97 1.46, 14.72 1.18 C15.46 0.9, 15.28 3.35, 15.25 7.88 M13.72 0.61 C14.43 -5.02, 14.15 1.44, 15.37 6.59 C16.6 11.74, 19.94 20.17, 21.1 31.51 C22.25 42.86, 21.48 58.06, 22.31 74.65 C23.15 91.25, 25.42 110.61, 26.11 131.07 C26.79 151.53, 26.15 174.2, 26.41 197.41 C26.67 220.63, 27.4 246, 27.68 270.35 C27.96 294.7, 28.5 319.9, 28.08 343.49 C27.66 367.07, 26 390.95, 25.15 411.85 C24.31 432.75, 23.88 452.37, 23.01 468.87 C22.15 485.37, 21.18 500.02, 19.96 510.83 C18.75 521.65, 16.7 528.78, 15.7 533.76 C14.7 538.75, 15.13 542.43, 13.95 540.74 C12.76 539.05, 10.19 531.89, 8.6 523.62 C7.01 515.34, 5.32 505.32, 4.39 491.1 C3.47 476.87, 3.8 457.21, 3.05 438.27 C2.31 419.33, 0.41 399.74, -0.07 377.46 C-0.55 355.17, 0.1 328.67, 0.18 304.55 C0.25 280.43, 0.13 256.55, 0.4 232.73 C0.68 208.92, 1.24 183.92, 1.84 161.65 C2.44 139.38, 3.33 118.01, 4.01 99.11 C4.69 80.21, 5.14 62.38, 5.92 48.25 C6.7 34.11, 7.38 22.18, 8.71 14.27 C10.03 6.36, 13.12 2.37, 13.87 0.78 C14.62 -0.81, 13.27 0.32, 13.2 4.73" stroke="#9c36b5" stroke-width="2" fill="none"></path></g><g transform="translate(77.47778449979376 497.5811690796322) rotate(0 6.569999694824219 62.5)"><text x="6.569999694824219" y="0" font-family="Segoe UI Emoji" font-size="20px" fill="#9c36b5" text-anchor="middle" style="white-space: pre;" direction="ltr" dominant-baseline="text-before-edge">A</text><text x="6.569999694824219" y="25" font-family="Segoe UI Emoji" font-size="20px" fill="#9c36b5" text-anchor="middle" style="white-space: pre;" direction="ltr" dominant-baseline="text-before-edge">s</text><text x="6.569999694824219" y="50" font-family="Segoe UI Emoji" font-size="20px" fill="#9c36b5" text-anchor="middle" style="white-space: pre;" direction="ltr" dominant-baseline="text-before-edge">t</text><text x="6.569999694824219" y="75" font-family="Segoe UI Emoji" font-size="20px" fill="#9c36b5" text-anchor="middle" style="white-space: pre;" direction="ltr" dominant-baseline="text-before-edge">r</text><text x="6.569999694824219" y="100" font-family="Segoe UI Emoji" font-size="20px" fill="#9c36b5" text-anchor="middle" style="white-space: pre;" direction="ltr" dominant-baseline="text-before-edge">o</text></g><g stroke-linecap="round" transform="translate(110 290) rotate(0 13.819999694824219 270)"><path d="M16.07 5.34 C17.43 5.32, 19.12 16.78, 20.34 27.36 C21.56 37.95, 22.68 52.4, 23.4 68.84 C24.12 85.28, 24.09 105.56, 24.64 125.98 C25.2 146.4, 26.33 168.14, 26.72 191.36 C27.1 214.58, 26.77 240.8, 26.93 265.31 C27.09 289.81, 27.87 315.13, 27.7 338.39 C27.53 361.65, 26.64 384.07, 25.93 404.88 C25.23 425.7, 24.38 446.13, 23.45 463.28 C22.52 480.42, 21.36 496.2, 20.36 507.75 C19.37 519.3, 18.6 527.29, 17.49 532.56 C16.39 537.84, 15.24 540.57, 13.74 539.41 C12.23 538.26, 9.61 533.32, 8.47 525.66 C7.34 518, 7.91 507.1, 6.93 493.44 C5.95 479.79, 3.65 462.11, 2.59 443.74 C1.52 425.36, 0.99 405.15, 0.55 383.22 C0.11 361.29, 0.16 336.17, -0.04 312.14 C-0.24 288.11, -0.83 263.32, -0.64 239.04 C-0.45 214.76, 0.54 189.03, 1.12 166.47 C1.7 143.9, 2.07 122.7, 2.84 103.67 C3.61 84.65, 4.86 66.73, 5.74 52.31 C6.61 37.89, 7.11 25.56, 8.1 17.18 C9.1 8.8, 10.06 3.61, 11.69 2.02 C13.33 0.44, 16.81 5.16, 17.91 7.68 C19.02 10.2, 18.62 12.76, 18.32 17.13 M9.71 19.19 C10.71 6.76, 11.04 2.59, 12.28 0.13 C13.52 -2.33, 15.76 -0.11, 17.16 4.41 C18.56 8.93, 19.85 16.95, 20.69 27.26 C21.54 37.58, 21.64 50.72, 22.24 66.32 C22.85 81.92, 23.32 100.31, 24.34 120.86 C25.35 141.41, 27.62 166.23, 28.32 189.63 C29.03 213.04, 28.94 237.33, 28.54 261.27 C28.15 285.21, 26.5 309.74, 25.96 333.28 C25.42 356.82, 25.51 381.36, 25.31 402.52 C25.11 423.68, 25.31 442.9, 24.76 460.24 C24.2 477.59, 23.47 494.38, 21.99 506.58 C20.51 518.78, 17.45 528.05, 15.88 533.43 C14.32 538.82, 13.72 539.8, 12.61 538.88 C11.51 537.96, 10.38 534.96, 9.27 527.9 C8.17 520.84, 6.77 509.94, 5.99 496.53 C5.2 483.11, 5.13 465.87, 4.55 447.4 C3.98 428.92, 3.14 407.51, 2.54 385.68 C1.94 363.85, 1.15 340.15, 0.94 316.43 C0.72 292.7, 1.21 267.4, 1.25 243.32 C1.29 219.24, 0.76 194.92, 1.17 171.94 C1.58 148.96, 2.76 125.13, 3.7 105.42 C4.64 85.71, 5.82 68.39, 6.79 53.69 C7.76 39, 8.95 22.07, 9.5 17.25 C10.05 12.42, 10.33 20.09, 10.1 24.75" stroke="#9c36b5" stroke-width="2" fill="none"></path></g><g transform="translate(116.98778663602423 472.5811690796322) rotate(0 7.05999755859375 87.5)"><text x="7.05999755859375" y="0" font-family="Segoe UI Emoji" font-size="20px" fill="#9c36b5" text-anchor="middle" style="white-space: pre;" direction="ltr" dominant-baseline="text-before-edge">D</text><text x="7.05999755859375" y="25" font-family="Segoe UI Emoji" font-size="20px" fill="#9c36b5" text-anchor="middle" style="white-space: pre;" direction="ltr" dominant-baseline="text-before-edge">e</text><text x="7.05999755859375" y="50" font-family="Segoe UI Emoji" font-size="20px" fill="#9c36b5" text-anchor="middle" style="white-space: pre;" direction="ltr" dominant-baseline="text-before-edge">e</text><text x="7.05999755859375" y="75" font-family="Segoe UI Emoji" font-size="20px" fill="#9c36b5" text-anchor="middle" style="white-space: pre;" direction="ltr" dominant-baseline="text-before-edge">p</text><text x="7.05999755859375" y="100" font-family="Segoe UI Emoji" font-size="20px" fill="#9c36b5" text-anchor="middle" style="white-space: pre;" direction="ltr" dominant-baseline="text-before-edge">k</text><text x="7.05999755859375" y="125" font-family="Segoe UI Emoji" font-size="20px" fill="#9c36b5" text-anchor="middle" style="white-space: pre;" direction="ltr" dominant-baseline="text-before-edge">i</text><text x="7.05999755859375" y="150" font-family="Segoe UI Emoji" font-size="20px" fill="#9c36b5" text-anchor="middle" style="white-space: pre;" direction="ltr" dominant-baseline="text-before-edge">t</text></g><g stroke-linecap="round" transform="translate(150 290) rotate(0 13.819999694824219 270)"><path d="M19.51 19.68 C20.72 24.23, 21.35 40.49, 22.1 55.4 C22.85 70.32, 23.29 89.44, 23.99 109.19 C24.7 128.94, 25.57 151.29, 26.33 173.92 C27.09 196.55, 28.3 221.02, 28.57 244.99 C28.84 268.97, 28.4 293.92, 27.93 317.77 C27.47 341.61, 26.26 366.08, 25.78 388.06 C25.3 410.03, 25.91 431.53, 25.06 449.63 C24.2 467.73, 21.69 483.74, 20.64 496.67 C19.6 509.6, 19.98 520.08, 18.8 527.23 C17.61 534.39, 14.99 538.88, 13.51 539.58 C12.04 540.29, 11.06 537.35, 9.93 531.46 C8.79 525.58, 7.78 516.16, 6.69 504.25 C5.59 492.35, 4.34 477.49, 3.36 460.03 C2.37 442.56, 1.26 421.02, 0.79 399.47 C0.31 377.93, 0.79 354.13, 0.51 330.77 C0.24 307.41, -0.73 283.37, -0.86 259.33 C-0.98 235.3, -0.77 209.86, -0.23 186.54 C0.31 163.23, 1.46 139.62, 2.36 119.43 C3.26 99.23, 4.37 80.97, 5.17 65.36 C5.97 49.76, 6.12 36.18, 7.17 25.8 C8.21 15.42, 10.03 7, 11.44 3.08 C12.85 -0.85, 14.16 -1.88, 15.62 2.25 C17.08 6.38, 19.33 21.23, 20.21 27.86 C21.1 34.48, 21.02 37.96, 20.92 42.01 M16.59 11.14 C18.02 13.85, 20.76 28.71, 22.27 41.96 C23.77 55.22, 25.02 72.44, 25.6 90.66 C26.18 108.89, 25.37 129.85, 25.74 151.32 C26.1 172.8, 27.4 195.62, 27.76 219.52 C28.12 243.42, 28.01 270.26, 27.89 294.73 C27.78 319.21, 27.53 343.62, 27.09 366.37 C26.64 389.13, 25.95 411.88, 25.21 431.26 C24.47 450.63, 23.44 468.07, 22.66 482.64 C21.87 497.21, 21.59 509.57, 20.49 518.68 C19.4 527.79, 17.47 534.49, 16.08 537.3 C14.7 540.12, 13.77 539.06, 12.19 535.56 C10.62 532.07, 7.93 526.35, 6.63 516.32 C5.32 506.28, 5.28 491.43, 4.36 475.35 C3.44 459.27, 1.59 439.86, 1.12 419.85 C0.66 399.84, 1.77 378.13, 1.56 355.29 C1.34 332.44, -0.04 307.03, -0.17 282.78 C-0.3 258.52, 0.66 233.35, 0.77 209.76 C0.88 186.18, -0.14 162.63, 0.48 141.27 C1.11 119.9, 3.69 98.87, 4.53 81.58 C5.38 64.28, 4.58 49.74, 5.56 37.5 C6.55 25.25, 8.88 14.34, 10.44 8.11 C12.01 1.89, 13.54 -0.48, 14.96 0.16 C16.37 0.8, 18.35 9.08, 18.92 11.98 C19.5 14.88, 18.78 13.25, 18.39 17.57" stroke="#9c36b5" stroke-width="2" fill="none"></path></g><g transform="translate(156.5677884670789 485.0811690796322) rotate(0 7.4799957275390625 75)"><text x="7.4799957275390625" y="0" font-family="Segoe UI Emoji" font-size="20px" fill="#9c36b5" text-anchor="middle" style="white-space: pre;" direction="ltr" dominant-baseline="text-before-edge">G</text><text x="7.4799957275390625" y="25" font-family="Segoe UI Emoji" font-size="20px" fill="#9c36b5" text-anchor="middle" style="white-space: pre;" direction="ltr" dominant-baseline="text-before-edge">a</text><text x="7.4799957275390625" y="50" font-family="Segoe UI Emoji" font-size="20px" fill="#9c36b5" text-anchor="middle" style="white-space: pre;" direction="ltr" dominant-baseline="text-before-edge">t</text><text x="7.4799957275390625" y="75" font-family="Segoe UI Emoji" font-size="20px" fill="#9c36b5" text-anchor="middle" style="white-space: pre;" direction="ltr" dominant-baseline="text-before-edge">s</text><text x="7.4799957275390625" y="100" font-family="Segoe UI Emoji" font-size="20px" fill="#9c36b5" text-anchor="middle" style="white-space: pre;" direction="ltr" dominant-baseline="text-before-edge">b</text><text x="7.4799957275390625" y="125" font-family="Segoe UI Emoji" font-size="20px" fill="#9c36b5" text-anchor="middle" style="white-space: pre;" direction="ltr" dominant-baseline="text-before-edge">y</text></g><g stroke-linecap="round" transform="translate(1110 30) rotate(0 51.224609375 42.5)"><path d="M33.08 2.3 C40.99 -0.71, 52.2 -0.27, 61.29 1.5 C70.39 3.26, 80.92 7.55, 87.66 12.87 C94.4 18.2, 99.65 26.22, 101.74 33.45 C103.83 40.68, 103.54 49.24, 100.23 56.24 C96.91 63.25, 89.29 70.67, 81.85 75.47 C74.41 80.26, 64.49 84.34, 55.58 85.03 C46.66 85.72, 36.49 83.18, 28.37 79.6 C20.25 76.03, 11.6 70.22, 6.85 63.58 C2.1 56.93, -0.46 47.39, -0.13 39.71 C0.2 32.04, 2.99 23.93, 8.81 17.54 C14.63 11.15, 29.88 4.06, 34.78 1.37 C39.68 -1.32, 37.94 0.58, 38.19 1.42 M30.98 4.32 C38.7 0.62, 49.89 -1.2, 58.84 -0.16 C67.79 0.88, 77.62 5.54, 84.69 10.56 C91.76 15.58, 98.81 22.67, 101.25 29.98 C103.7 37.29, 102.13 46.88, 99.36 54.42 C96.59 61.96, 91.5 70.17, 84.65 75.22 C77.81 80.26, 67.31 83.84, 58.27 84.69 C49.24 85.54, 38.91 83.38, 30.45 80.33 C21.99 77.29, 12.4 72.5, 7.51 66.42 C2.63 60.34, 1.26 51.39, 1.13 43.82 C1 36.26, 1.95 27.51, 6.73 21.03 C11.52 14.56, 25.91 7.86, 29.85 4.97 C33.79 2.08, 30.24 3.08, 30.39 3.68" stroke="#e03131" stroke-width="2" fill="none"></path></g><g transform="translate(1131.7433614742586 47.447961799571715) rotate(0 29.259979248046875 25)"><text x="29.259979248046875" y="0" font-family="Segoe UI Emoji" font-size="20px" fill="#e03131" text-anchor="middle" style="white-space: pre;" direction="ltr" dominant-baseline="text-before-edge">React</text><text x="29.259979248046875" y="25" font-family="Segoe UI Emoji" font-size="20px" fill="#e03131" text-anchor="middle" style="white-space: pre;" direction="ltr" dominant-baseline="text-before-edge">Native</text></g><g stroke-linecap="round"><g transform="translate(1317.2434866590852 212.225291462962) rotate(0 -57.66857294518536 -55.60258680304068)"><path d="M-0.77 0.18 C-19.67 -18.16, -95.51 -92.29, -114.44 -110.86 M1.02 -0.78 C-17.86 -19.41, -95.64 -94.61, -114.92 -112.8" stroke="#f08c00" stroke-width="2" fill="none"></path></g><g transform="translate(1317.2434866590852 212.225291462962) rotate(0 -57.66857294518536 -55.60258680304068)"><path d="M-87.46 -100.72 C-92.84 -101.94, -98.31 -104.38, -114.92 -112.8 M-87.46 -100.72 C-96.11 -104.56, -104.58 -107.49, -114.92 -112.8" stroke="#f08c00" stroke-width="2" fill="none"></path></g><g transform="translate(1317.2434866590852 212.225291462962) rotate(0 -57.66857294518536 -55.60258680304068)"><path d="M-101.65 -85.89 C-103.95 -90.13, -106.44 -95.68, -114.92 -112.8 M-101.65 -85.89 C-106.12 -94.12, -110.36 -101.46, -114.92 -112.8" stroke="#f08c00" stroke-width="2" fill="none"></path></g></g><mask></mask><g stroke-linecap="round"><g transform="translate(453.07150125118596 929.0774343865155) rotate(0 28.92662986475807 -124.57232251690692)"><path d="M-0.26 -0.71 C9.18 -42.3, 47.79 -206.98, 57.51 -248.57 M1.81 1.53 C10.98 -40.5, 47.12 -208.55, 56.38 -250.4" stroke="#1971c2" stroke-width="2" fill="none"></path></g><g transform="translate(453.07150125118596 929.0774343865155) rotate(0 28.92662986475807 -124.57232251690692)"><path d="M60.41 -220.67 C57.48 -232.38, 58.1 -242.6, 56.38 -250.4 M60.41 -220.67 C58.56 -226.95, 57.8 -233.6, 56.38 -250.4" stroke="#1971c2" stroke-width="2" fill="none"></path></g><g transform="translate(453.07150125118596 929.0774343865155) rotate(0 28.92662986475807 -124.57232251690692)"><path d="M40.35 -225.03 C44.97 -235.07, 53.09 -243.66, 56.38 -250.4 M40.35 -225.03 C42.64 -230.31, 46 -236.08, 56.38 -250.4" stroke="#1971c2" stroke-width="2" fill="none"></path></g></g><mask></mask><g stroke-linecap="round"><g transform="translate(367.1947223833648 941.281510192367) rotate(0 -28.388067587158275 -11.634590456738351)"><path d="M-0.73 0.59 C-10.27 -2.95, -47.45 -18.22, -56.81 -22.07 M1.09 -0.14 C-8.66 -3.91, -47.98 -19.51, -57.78 -23.57" stroke="#1971c2" stroke-width="2" fill="none"></path></g><g transform="translate(367.1947223833648 941.281510192367) rotate(0 -28.388067587158275 -11.634590456738351)"><path d="M-27.8 -22.53 C-36.97 -23.12, -46.14 -23.61, -57.78 -23.57 M-27.8 -22.53 C-38.42 -23.52, -49.76 -22.51, -57.78 -23.57" stroke="#1971c2" stroke-width="2" fill="none"></path></g><g transform="translate(367.1947223833648 941.281510192367) rotate(0 -28.388067587158275 -11.634590456738351)"><path d="M-35.49 -3.5 C-41.92 -10.5, -48.47 -17.44, -57.78 -23.57 M-35.49 -3.5 C-43.5 -11.3, -52.06 -17.16, -57.78 -23.57" stroke="#1971c2" stroke-width="2" fill="none"></path></g></g><mask></mask></svg>