<?xml version="1.0" encoding="UTF-8" standalone="no"?>
<svg
   version="1.0"
   width="300.000000pt"
   height="300.000000pt"
   viewBox="0 0 300.000000 300.000000"
   preserveAspectRatio="xMidYMid meet"
   id="svg4"
   sodipodi:docname="catlu-white-face.svg"
   inkscape:version="1.3.2 (091e20e, 2023-11-25)"
   xmlns:inkscape="http://www.inkscape.org/namespaces/inkscape"
   xmlns:sodipodi="http://sodipodi.sourceforge.net/DTD/sodipodi-0.dtd"
   xmlns="http://www.w3.org/2000/svg"
   xmlns:svg="http://www.w3.org/2000/svg">
  <defs
     id="defs4" />
  <sodipodi:namedview
     id="namedview4"
     pagecolor="#ffffff"
     bordercolor="#000000"
     borderopacity="0.25"
     inkscape:showpageshadow="2"
     inkscape:pageopacity="0.0"
     inkscape:pagecheckerboard="0"
     inkscape:deskcolor="#d1d1d1"
     inkscape:document-units="pt"
     inkscape:zoom="2.205"
     inkscape:cx="200"
     inkscape:cy="200"
     inkscape:window-width="1408"
     inkscape:window-height="1027"
     inkscape:window-x="234"
     inkscape:window-y="25"
     inkscape:window-maximized="0"
     inkscape:current-layer="g4" />
  <metadata
     id="metadata1">
Created by potrace 1.10, written by Peter Selinger 2001-2011
</metadata>
  <g
     transform="translate(0.000000,300.000000) scale(0.050000,-0.050000)"
     fill="#000000"
     stroke="none"
     id="g4">
    <path
       d="M4653 5318 c-65 -34 -157 -103 -204 -155 -237 -255 -462 -466 -771 -724 l-142 -119 -409 0 c-225 0 -473 -10 -550 -23 l-140 -23 -44 54 c-24 30 -93 74 -153 99 -113 46 -367 231 -387 282 -18 48 -535 416 -666 474 -163 73 -307 -9 -374 -212 -44 -132 -47 -979 -5 -1197 16 -79 34 -177 41 -218 12 -69 88 -158 155 -181 18 -6 8 -46 -37 -147 -85 -186 -102 -249 -128 -448 -50 -390 -47 -499 24 -820 34 -156 261 -595 384 -746 154 -187 448 -354 626 -354 43 0 127 -14 187 -30 87 -23 256 -30 810 -30 l700 0 280 70 c509 126 1013 493 1210 881 65 129 89 1031 32 1204 -18 52 -45 149 -62 215 -17 66 -49 166 -72 222 l-40 103 51 75 c130 193 155 343 158 980 3 572 2 581 -44 676 -82 167 -226 197 -430 92z m135 -670 c-5 -694 -51 -918 -157 -757 -61 93 -265 287 -316 299 -44 11 -195 148 -195 177 0 6 99 94 220 195 121 101 238 213 260 248 154 250 190 219 188 -162z m-3442 24 c101 -71 216 -162 254 -203 39 -40 131 -122 205 -182 74 -60 135 -120 134 -133 -1 -25 -173 -154 -299 -224 -86 -48 -288 -195 -366 -268 -103 -94 -154 149 -154 730 0 478 -21 453 226 280z m2494 -720 c291 -47 400 -113 570 -342 158 -214 208 -300 282 -484 l68 -168 0 -526 0 -526 -57 -78 c-242 -331 -563 -541 -983 -640 -215 -51 -1418 -65 -1597 -19 -65 17 -146 31 -179 31 -357 0 -751 567 -777 1119 -29 624 187 1069 633 1300 28 15 109 70 182 123 174 128 300 158 898 216 280 27 775 24 960 -6z"
       id="path1" />
    <path
       d="M2260 3327 c-320 -48 -552 -308 -457 -515 65 -144 257 -88 257 75 0 203 390 222 456 23 47 -144 155 -198 229 -115 182 202 -163 580 -485 532z"
       id="path2" />
    <path
       d="M3700 3327 c-320 -48 -552 -308 -457 -515 65 -144 257 -88 257 75 0 203 390 222 456 23 47 -144 155 -198 229 -115 182 202 -163 580 -485 532z"
       id="path3" />
    <path
       d="M3744 2247 c-14 -6 -42 -44 -63 -84 -118 -232 -1066 -317 -1281 -115 -172 161 -238 184 -316 111 -142 -132 152 -422 487 -481 383 -66 1044 42 1245 204 201 162 144 451 -72 365z"
       id="path4" />
    <path
       style="fill:#ffffff;stroke-width:0.851894"
       d="m 156.46259,323.30224 c -6.71873,-0.33992 -13.55441,-1.13589 -17.13339,-1.99507 -2.05056,-0.49226 -6.07523,-1.12293 -8.94371,-1.4015 -9.13728,-0.88733 -15.23759,-3.54639 -22.44898,-9.78526 -14.467499,-12.51643 -25.631903,-34.16453 -29.098346,-56.42253 -1.215825,-7.80681 -1.09376,-24.70087 0.241501,-33.42435 4.335674,-28.32566 16.925267,-47.72265 39.060925,-60.1818 2.36961,-1.33375 7.5737,-4.71255 11.56463,-7.50845 13.12448,-9.19452 19.28098,-11.25133 41.95011,-14.01502 24.04354,-2.93126 43.25015,-3.89257 63.86865,-3.19671 13.60257,0.45908 18.01293,0.86336 25.247,2.31425 15.49497,3.10773 22.34853,7.65847 33.02876,21.93097 9.92694,13.26584 14.2888,20.95347 20.22088,35.63857 l 3.21294,7.95375 v 34.72601 34.726 l -3.69069,4.93929 c -14.59124,19.52758 -31.16808,31.76887 -53.23216,39.30968 -11.12837,3.80332 -16.40952,4.70393 -34.00686,5.79928 -7.34203,0.457 -63.1612,0.93086 -69.84126,0.59289 z m 53.97647,-35.05162 c 17.13181,-2.3074 29.88994,-5.7009 38.91215,-10.35014 6.65026,-3.42695 10.79045,-7.95089 12.60137,-13.7694 2.87845,-9.24849 -1.69246,-16.41898 -9.52016,-14.93449 -3.36473,0.63811 -3.78166,0.96044 -6.30396,4.87375 -1.24997,1.93932 -2.85451,4.07356 -3.56565,4.74275 -9.37868,8.82558 -41.34794,14.2834 -64.36496,10.98843 -9.45228,-1.35312 -14.33955,-3.33997 -19.46769,-7.9143 -8.7707,-7.82352 -12.91413,-9.75521 -17.13475,-7.98829 -2.05234,0.85918 -4.74875,3.99995 -5.11636,5.95951 -1.91251,10.19451 15.16299,24.48194 33.83931,28.31407 5.21286,1.06961 10.06739,1.33279 21.51837,1.16659 8.4481,-0.12262 13.72254,-0.43125 18.60233,-1.08848 z m -79.9278,-70.36406 c 2.16116,-0.60016 4.6488,-2.76383 5.82227,-5.06401 0.49827,-0.97668 1.07904,-3.31926 1.29059,-5.20572 0.51803,-4.61923 1.90287,-6.60147 6.11341,-8.75062 3.00863,-1.53566 3.27358,-1.58688 8.14418,-1.5744 4.21165,0.0108 5.4747,0.18818 7.72867,1.08539 3.77191,1.50144 6.5515,4.39536 8.16033,8.49599 4.24,10.80705 12.51246,12.82166 17.25588,4.20235 1.21073,-2.20003 1.35079,-2.8644 1.33108,-6.31364 -0.0179,-3.12415 -0.25465,-4.4168 -1.24921,-6.81929 -2.67565,-6.46338 -9.16419,-13.02002 -16.40033,-16.57246 -5.49195,-2.69616 -8.94253,-3.52477 -14.51312,-3.48511 -13.48301,0.096 -28.0246,8.57568 -33.43755,19.49858 -1.87358,3.78075 -1.93654,4.04925 -1.93492,8.25082 10e-4,3.56803 0.18932,4.75818 1.05332,6.67052 1.2696,2.81006 3.00632,4.56027 5.35646,5.39807 2.14324,0.76404 3.07223,0.79634 5.27894,0.18353 z m 96.06506,-0.0354 c 4.0511,-1.35636 6.18046,-4.26353 6.85492,-9.35886 0.25507,-1.92702 0.84168,-4.24924 1.30356,-5.16049 3.3398,-6.58911 15.86359,-8.4189 23.67445,-3.45897 2.19646,1.39477 4.44734,4.16816 5.07213,6.24957 0.72284,2.40805 3.16981,6.43454 4.81201,7.91817 4.63187,4.18462 10.05933,2.69725 13.10337,-3.59091 2.01231,-4.15686 1.18002,-10.48471 -2.10628,-16.01403 -6.52106,-10.97189 -20.90263,-18.19534 -32.68607,-16.41725 -13.2527,1.9998 -25.07251,9.67742 -29.88592,19.41257 -1.52583,3.086 -1.73812,3.93401 -1.89198,7.55766 -0.14215,3.34761 2e-5,4.54157 0.79053,6.63914 1.94989,5.17391 6.45421,7.73175 10.95928,6.2234 z"
       id="path5"
       transform="matrix(15,0,0,-15,0,6000)" />
    <path
       style="fill:#ffffff;stroke-width:0.851894"
       d="m 80.807224,156.21899 c -1.450164,-1.1407 -2.348156,-3.46817 -3.439622,-8.91504 -1.644368,-8.20608 -1.951949,-13.593 -2.170108,-38.0069 -0.237153,-26.539481 -0.15801,-27.531577 2.218159,-27.805777 1.399455,-0.161492 3.670229,1.192763 11.922218,7.110229 7.781055,5.579762 13.906779,10.526439 18.598639,15.018878 2.2449,2.14948 7.55668,6.8747 11.80396,10.50048 8.39655,7.16792 9.70889,8.63083 8.76388,9.76949 -2.05492,2.47602 -10.81355,8.76568 -19.7402,14.17562 -6.16053,3.73354 -14.726738,9.86126 -20.935892,14.9762 -4.934263,4.06471 -5.542434,4.33989 -7.021034,3.17682 z"
       id="path6"
       transform="matrix(15,0,0,-15,0,6000)" />
    <path
       style="fill:#ffffff;stroke-width:0.851894"
       d="m 311.43785,143.23259 c -0.31917,-0.12826 -1.66081,-1.69378 -2.98144,-3.47893 -5.49307,-7.42522 -15.31845,-16.53677 -21.11951,-19.58514 -3.12203,-1.64058 -10.81645,-8.30353 -11.87665,-10.28453 -0.63782,-1.19179 -0.72748,-1.1014 11.84134,-11.937065 13.9595,-12.034584 17.85067,-15.91672 21.69101,-21.640641 3.15515,-4.702672 6.05488,-7.786973 7.03643,-7.484304 2.77118,0.85451 3.55001,13.021374 2.56187,40.02156 -0.51769,14.14539 -1.43684,24.01612 -2.69415,28.93213 -1.28901,5.03999 -2.32909,6.31287 -4.4589,5.45692 z"
       id="path7"
       transform="matrix(15,0,0,-15,0,6000)" />
  </g>
</svg>
