<?xml version="1.0" standalone="no"?>
<!DOCTYPE svg PUBLIC "-//W3C//DTD SVG 20010904//EN"
 "http://www.w3.org/TR/2001/REC-SVG-20010904/DTD/svg10.dtd">
<svg version="1.0" xmlns="http://www.w3.org/2000/svg"
 width="300.000000pt" height="300.000000pt" viewBox="0 0 300.000000 300.000000"
 preserveAspectRatio="xMidYMid meet">
<metadata>
Created by potrace 1.10, written by Peter Selinger 2001-2011
</metadata>
<g transform="translate(0.000000,300.000000) scale(0.050000,-0.050000)"
fill="#000000" stroke="none">
<path d="M4653 5318 c-65 -34 -157 -103 -204 -155 -237 -255 -462 -466 -771
-724 l-142 -119 -409 0 c-225 0 -473 -10 -550 -23 l-140 -23 -44 54 c-24 30
-93 74 -153 99 -113 46 -367 231 -387 282 -18 48 -535 416 -666 474 -163 73
-307 -9 -374 -212 -44 -132 -47 -979 -5 -1197 16 -79 34 -177 41 -218 12 -69
88 -158 155 -181 18 -6 8 -46 -37 -147 -85 -186 -102 -249 -128 -448 -50 -390
-47 -499 24 -820 34 -156 261 -595 384 -746 154 -187 448 -354 626 -354 43 0
127 -14 187 -30 87 -23 256 -30 810 -30 l700 0 280 70 c509 126 1013 493 1210
881 65 129 89 1031 32 1204 -18 52 -45 149 -62 215 -17 66 -49 166 -72 222
l-40 103 51 75 c130 193 155 343 158 980 3 572 2 581 -44 676 -82 167 -226
197 -430 92z m135 -670 c-5 -694 -51 -918 -157 -757 -61 93 -265 287 -316 299
-44 11 -195 148 -195 177 0 6 99 94 220 195 121 101 238 213 260 248 154 250
190 219 188 -162z m-3442 24 c101 -71 216 -162 254 -203 39 -40 131 -122 205
-182 74 -60 135 -120 134 -133 -1 -25 -173 -154 -299 -224 -86 -48 -288 -195
-366 -268 -103 -94 -154 149 -154 730 0 478 -21 453 226 280z m2494 -720 c291
-47 400 -113 570 -342 158 -214 208 -300 282 -484 l68 -168 0 -526 0 -526 -57
-78 c-242 -331 -563 -541 -983 -640 -215 -51 -1418 -65 -1597 -19 -65 17 -146
31 -179 31 -357 0 -751 567 -777 1119 -29 624 187 1069 633 1300 28 15 109 70
182 123 174 128 300 158 898 216 280 27 775 24 960 -6z"/>
<path d="M2260 3327 c-320 -48 -552 -308 -457 -515 65 -144 257 -88 257 75 0
203 390 222 456 23 47 -144 155 -198 229 -115 182 202 -163 580 -485 532z"/>
<path d="M3700 3327 c-320 -48 -552 -308 -457 -515 65 -144 257 -88 257 75 0
203 390 222 456 23 47 -144 155 -198 229 -115 182 202 -163 580 -485 532z"/>
<path d="M3744 2247 c-14 -6 -42 -44 -63 -84 -118 -232 -1066 -317 -1281 -115
-172 161 -238 184 -316 111 -142 -132 152 -422 487 -481 383 -66 1044 42 1245
204 201 162 144 451 -72 365z"/>
</g>
</svg>
